<svg width="1233" height="327" viewBox="0 0 1233 327" fill="none" xmlns="http://www.w3.org/2000/svg">
<rect x="219" y="179" width="1012" height="147" fill="white"/>
<rect x="1232" y="128" width="51.0001" height="1232" transform="rotate(90 1232 128)" fill="white"/>
<rect x="456.5" y="0.5" width="77" height="128" fill="white"/>
<rect x="2" width="454" height="128" fill="white"/>
<rect id="kab314" x="874.5" y="0.5" width="178" height="128" fill="white"/>
<rect x="1053" y="1" width="178" height="128" fill="white"/>
<rect x="534" width="340" height="128" fill="white"/>
<rect id="kab307" x="106.5" y="178.5" width="112" height="147" fill="white"/>
<rect x="2" y="179" width="103" height="147" fill="white"/>
<path fill-rule="evenodd" clip-rule="evenodd" d="M1233 0H0V327H739.099H1233V0ZM3 127V3H136.111V127H82.0655C81.2371 127 80.5655 127.672 80.5655 128.5C80.5655 129.328 81.2371 130 82.0655 130H195.157C195.986 130 196.657 129.328 196.657 128.5C196.657 127.672 195.986 127 195.157 127H139.111V3H271.221V127H224.181C223.353 127 222.681 127.672 222.681 128.5C222.681 129.328 223.353 130 224.181 130H346.781C347.609 130 348.281 129.328 348.281 128.5C348.281 127.672 347.609 127 346.781 127H274.221V3H401.326V126.5C401.326 126.776 401.102 127 400.826 127H377.306C376.477 127 375.806 127.672 375.806 128.5C375.806 129.328 376.477 130 377.306 130H400.826C402.759 130 404.326 128.433 404.326 126.5V3H455.37V126.5C455.37 128.433 456.937 130 458.87 130H485.393C486.222 130 486.893 129.328 486.893 128.5C486.893 127.672 486.222 127 485.393 127H458.87C458.594 127 458.37 126.776 458.37 126.5V3H532.433V127H515.418C514.589 127 513.918 127.672 513.918 128.5C513.918 129.328 514.589 130 515.418 130H633.5C634.328 130 635 129.328 635 128.5C635 127.672 634.328 127 633.5 127H535.433V3H609.496H612.496H695.566V127H661.537C660.708 127 660.037 127.672 660.037 128.5C660.037 129.328 660.708 130 661.537 130H761C761.828 130 762.5 129.328 762.5 128.5C762.5 127.672 761.828 127 761 127H698.566V3H784.138H787.138H872.71V127H790C789.172 127 788.5 127.672 788.5 128.5C788.5 129.328 789.172 130 790 130H998.811C999.639 130 1000.31 129.328 1000.31 128.5C1000.31 127.672 999.639 127 998.811 127H875.71V3H1051.86V127H1029.1C1028.27 127 1027.6 127.672 1027.6 128.5C1027.6 129.328 1028.27 130 1029.1 130H1116.91C1117.74 130 1118.41 129.328 1118.41 128.5C1118.41 127.672 1117.74 127 1116.91 127H1054.86V3H1230V127H1146.93C1146.1 127 1145.43 127.672 1145.43 128.5C1145.43 129.328 1146.1 130 1146.93 130H1230V177H1146.93C1146.1 177 1145.43 177.672 1145.43 178.5C1145.43 179.328 1146.1 180 1146.93 180H1230V324H1106.9V180H1116.91C1117.74 180 1118.41 179.328 1118.41 178.5C1118.41 177.672 1117.74 177 1116.91 177H1028.84C1028.01 177 1027.34 177.672 1027.34 178.5C1027.34 179.328 1028.01 180 1028.84 180H1103.9V324H979.794V180H998.811C999.639 180 1000.31 179.328 1000.31 178.5C1000.31 177.672 999.639 177 998.811 177H970.788C969.96 177 969.288 177.672 969.288 178.5C969.288 179.328 969.96 180 970.788 180H976.794V324H935.758V180H942.765C943.594 180 944.265 179.328 944.265 178.5C944.265 177.672 943.594 177 942.765 177H932.758V324H881.714V180.5C881.714 178.567 880.147 177 878.214 177H767.5C766.672 177 766 177.672 766 178.5C766 179.328 766.672 180 767.5 180H878.214C878.491 180 878.714 180.224 878.714 180.5V324H789.64H786.64H739.099V180.5C739.099 178.567 737.531 177 735.599 177H568.461C567.633 177 566.961 177.672 566.961 178.5C566.961 179.328 567.633 180 568.461 180H609.496V324H395.319V180H546.943C547.772 180 548.443 179.328 548.443 178.5C548.443 177.672 547.772 177 546.943 177H376.305C375.476 177 374.805 177.672 374.805 178.5C374.805 179.328 375.476 180 376.305 180H392.319V324H322.26V180H346.28C347.109 180 347.78 179.328 347.78 178.5C347.78 177.672 347.109 177 346.28 177H283.229C282.401 177 281.729 177.672 281.729 178.5C281.729 179.328 282.401 180 283.229 180H319.26V324H219.176V180H252.704C253.533 180 254.204 179.328 254.204 178.5C254.204 177.672 253.533 177 252.704 177H192.155C191.327 177 190.655 177.672 190.655 178.5C190.655 179.328 191.327 180 192.155 180H216.176V324H107.085V180H162.131C162.959 180 163.631 179.328 163.631 178.5C163.631 177.672 162.959 177 162.131 177H84.0671C83.2387 177 82.5671 177.672 82.5671 178.5C82.5671 179.328 83.2387 180 84.0671 180H104.085V324H3V180H54.0427C54.8711 180 55.5427 179.328 55.5427 178.5C55.5427 177.672 54.8711 177 54.0427 177H3V130H53.0419C53.8703 130 54.5419 129.328 54.5419 128.5C54.5419 127.672 53.8703 127 53.0419 127H3ZM736.099 180.5V324H612.496V180H735.599C735.875 180 736.099 180.224 736.099 180.5Z" fill="#CDCDCD"/>
<path fill-rule="evenodd" clip-rule="evenodd" d="M418.747 44L439.98 26.5H445.476V29H441.729V35.25H439.231V30.375L420.496 45.875V50.25H417.998V46.5H415.5V44H418.747ZM430.488 41.5H436.733V36.5H445.476V39H439.231V44H432.986V49H426.741V54H420.496V56.5H417.998V51.5H424.243V46.5H430.488V41.5Z" fill="#808080"/>
<path fill-rule="evenodd" clip-rule="evenodd" d="M896.747 292L917.98 274.5H923.476V277H919.729V283.25H917.231V278.375L898.496 293.875V298.25H895.998V294.5H893.5V292H896.747ZM908.488 289.5H914.733V284.5H923.476V287H917.231V292H910.986V297H904.741V302H898.496V304.5H895.998V299.5H902.243V294.5H908.488V289.5Z" fill="#808080"/>
<path d="M960.586 250.626C960.028 250.626 959.571 251.201 959.571 251.908V253.025H968.577V251.908C968.577 251.201 968.133 250.626 967.575 250.626H960.586ZM959.762 253.901V262.47H949.563L949.5 265.174H967.753C968.362 265.174 968.351 264.761 968.489 264.451V253.901H959.762ZM949.69 265.999C950.519 268.483 952.037 270.376 954.041 271.852C954.174 273.277 952.794 274.492 951.834 275.761H966.56C964.738 273.687 963.877 271.517 963.732 269.274C964.565 268.183 965.079 267.091 965.241 265.999H949.69Z" fill="#808080"/>
<path d="M1132.89 67.179C1132.05 67.179 1131.29 67.0341 1130.63 66.7443C1129.98 66.4545 1129.45 66.0518 1129.07 65.5362C1128.68 65.0163 1128.47 64.4134 1128.44 63.7273H1130.05C1130.08 64.1491 1130.23 64.5135 1130.49 64.8203C1130.74 65.1229 1131.08 65.3572 1131.49 65.5234C1131.9 65.6896 1132.36 65.7727 1132.86 65.7727C1133.43 65.7727 1133.92 65.6747 1134.36 65.4787C1134.79 65.2827 1135.13 65.0099 1135.38 64.6605C1135.63 64.3111 1135.75 63.9062 1135.75 63.446C1135.75 62.9645 1135.63 62.5405 1135.39 62.174C1135.16 61.8033 1134.81 61.5135 1134.35 61.3047C1133.89 61.0959 1133.32 60.9915 1132.66 60.9915H1131.61V59.5852H1132.66C1133.18 59.5852 1133.63 59.4915 1134.03 59.304C1134.42 59.1165 1134.73 58.8523 1134.95 58.5114C1135.18 58.1705 1135.29 57.7699 1135.29 57.3097C1135.29 56.8665 1135.19 56.4808 1135 56.1527C1134.8 55.8246 1134.53 55.5689 1134.17 55.3857C1133.81 55.2024 1133.4 55.1108 1132.91 55.1108C1132.46 55.1108 1132.04 55.1939 1131.64 55.3601C1131.24 55.522 1130.92 55.7585 1130.66 56.0696C1130.41 56.3764 1130.28 56.7472 1130.26 57.1818H1128.72C1128.75 56.4957 1128.95 55.8949 1129.34 55.3793C1129.73 54.8594 1130.24 54.4545 1130.86 54.1648C1131.49 53.875 1132.19 53.7301 1132.94 53.7301C1133.75 53.7301 1134.44 53.8942 1135.02 54.2223C1135.6 54.5462 1136.05 54.9744 1136.36 55.5071C1136.67 56.0398 1136.83 56.6151 1136.83 57.233C1136.83 57.9702 1136.63 58.5987 1136.24 59.1186C1135.86 59.6385 1135.34 59.9986 1134.68 60.1989V60.3011C1135.51 60.4375 1136.15 60.7891 1136.62 61.3558C1137.08 61.9183 1137.31 62.6151 1137.31 63.446C1137.31 64.1577 1137.12 64.7969 1136.73 65.3636C1136.35 65.9261 1135.82 66.3693 1135.16 66.6932C1134.49 67.017 1133.74 67.179 1132.89 67.179ZM1144.53 53.9091V67H1142.94V55.571H1142.87L1139.67 57.6932V56.0824L1142.94 53.9091H1144.53ZM1152.38 67.179C1151.63 67.179 1150.96 67.0298 1150.36 66.7315C1149.76 66.4332 1149.28 66.0241 1148.91 65.5043C1148.55 64.9844 1148.35 64.392 1148.32 63.7273H1149.85C1149.91 64.3196 1150.18 64.8097 1150.66 65.1974C1151.14 65.581 1151.72 65.7727 1152.38 65.7727C1152.92 65.7727 1153.4 65.647 1153.82 65.3956C1154.24 65.1442 1154.57 64.799 1154.81 64.3601C1155.05 63.9169 1155.17 63.4162 1155.17 62.858C1155.17 62.2869 1155.05 61.7777 1154.79 61.3303C1154.55 60.8786 1154.21 60.5227 1153.77 60.2628C1153.34 60.0028 1152.84 59.8707 1152.28 59.8665C1151.88 59.8622 1151.47 59.924 1151.05 60.0518C1150.63 60.1754 1150.28 60.3352 1150.01 60.5312L1148.52 60.3523L1149.32 53.9091H1156.12V55.3153H1150.65L1150.19 59.1761H1150.26C1150.53 58.9631 1150.87 58.7862 1151.27 58.6456C1151.68 58.505 1152.1 58.4347 1152.54 58.4347C1153.34 58.4347 1154.05 58.6264 1154.68 59.0099C1155.31 59.3892 1155.8 59.9091 1156.16 60.5696C1156.52 61.2301 1156.71 61.9844 1156.71 62.8324C1156.71 63.6676 1156.52 64.4134 1156.14 65.0696C1155.77 65.7216 1155.26 66.2372 1154.61 66.6165C1153.96 66.9915 1153.22 67.179 1152.38 67.179Z" fill="#808080"/>
<path d="M953.09 67.179C952.246 67.179 951.494 67.0341 950.834 66.7443C950.177 66.4545 949.655 66.0518 949.267 65.5362C948.884 65.0163 948.675 64.4134 948.641 63.7273H950.252C950.286 64.1491 950.431 64.5135 950.687 64.8203C950.942 65.1229 951.277 65.3572 951.69 65.5234C952.103 65.6896 952.562 65.7727 953.064 65.7727C953.627 65.7727 954.125 65.6747 954.56 65.4787C954.995 65.2827 955.336 65.0099 955.583 64.6605C955.83 64.3111 955.954 63.9062 955.954 63.446C955.954 62.9645 955.834 62.5405 955.596 62.174C955.357 61.8033 955.008 61.5135 954.547 61.3047C954.087 61.0959 953.525 60.9915 952.86 60.9915H951.812V59.5852H952.86C953.38 59.5852 953.836 59.4915 954.228 59.304C954.624 59.1165 954.933 58.8523 955.155 58.5114C955.38 58.1705 955.493 57.7699 955.493 57.3097C955.493 56.8665 955.395 56.4808 955.199 56.1527C955.003 55.8246 954.726 55.5689 954.368 55.3857C954.015 55.2024 953.597 55.1108 953.116 55.1108C952.664 55.1108 952.238 55.1939 951.837 55.3601C951.441 55.522 951.117 55.7585 950.866 56.0696C950.614 56.3764 950.478 56.7472 950.456 57.1818H948.922C948.948 56.4957 949.155 55.8949 949.542 55.3793C949.93 54.8594 950.437 54.4545 951.064 54.1648C951.694 53.875 952.387 53.7301 953.141 53.7301C953.951 53.7301 954.645 53.8942 955.225 54.2223C955.804 54.5462 956.25 54.9744 956.561 55.5071C956.872 56.0398 957.027 56.6151 957.027 57.233C957.027 57.9702 956.834 58.5987 956.446 59.1186C956.062 59.6385 955.54 59.9986 954.88 60.1989V60.3011C955.706 60.4375 956.352 60.7891 956.816 61.3558C957.281 61.9183 957.513 62.6151 957.513 63.446C957.513 64.1577 957.319 64.7969 956.932 65.3636C956.548 65.9261 956.024 66.3693 955.359 66.6932C954.694 67.017 953.938 67.179 953.09 67.179ZM964.73 53.9091V67H963.145V55.571H963.068L959.872 57.6932V56.0824L963.145 53.9091H964.73ZM968.188 64.3153V63.0114L973.941 53.9091H974.887V55.929H974.248L969.901 62.8068V62.9091H977.648V64.3153H968.188ZM974.35 67V63.919V63.3118V53.9091H975.858V67H974.35Z" fill="#808080"/>
<path d="M151.957 257.179C151.113 257.179 150.361 257.034 149.701 256.744C149.044 256.455 148.522 256.052 148.135 255.536C147.751 255.016 147.542 254.413 147.508 253.727H149.119C149.153 254.149 149.298 254.513 149.554 254.82C149.809 255.123 150.144 255.357 150.557 255.523C150.971 255.69 151.429 255.773 151.932 255.773C152.494 255.773 152.993 255.675 153.427 255.479C153.862 255.283 154.203 255.01 154.45 254.661C154.697 254.311 154.821 253.906 154.821 253.446C154.821 252.964 154.701 252.54 154.463 252.174C154.224 251.803 153.875 251.513 153.415 251.305C152.954 251.096 152.392 250.991 151.727 250.991H150.679V249.585H151.727C152.247 249.585 152.703 249.491 153.095 249.304C153.491 249.116 153.8 248.852 154.022 248.511C154.248 248.17 154.361 247.77 154.361 247.31C154.361 246.866 154.263 246.481 154.066 246.153C153.87 245.825 153.593 245.569 153.236 245.386C152.882 245.202 152.464 245.111 151.983 245.111C151.531 245.111 151.105 245.194 150.704 245.36C150.308 245.522 149.984 245.759 149.733 246.07C149.481 246.376 149.345 246.747 149.324 247.182H147.79C147.815 246.496 148.022 245.895 148.41 245.379C148.797 244.859 149.304 244.455 149.931 244.165C150.562 243.875 151.254 243.73 152.008 243.73C152.818 243.73 153.513 243.894 154.092 244.222C154.672 244.546 155.117 244.974 155.428 245.507C155.739 246.04 155.895 246.615 155.895 247.233C155.895 247.97 155.701 248.599 155.313 249.119C154.929 249.638 154.407 249.999 153.747 250.199V250.301C154.574 250.437 155.219 250.789 155.684 251.356C156.148 251.918 156.38 252.615 156.38 253.446C156.38 254.158 156.187 254.797 155.799 255.364C155.415 255.926 154.891 256.369 154.226 256.693C153.562 257.017 152.805 257.179 151.957 257.179ZM163.265 257.179C162.302 257.179 161.481 256.917 160.804 256.393C160.126 255.864 159.608 255.099 159.25 254.098C158.892 253.092 158.714 251.878 158.714 250.455C158.714 249.04 158.892 247.832 159.25 246.83C159.613 245.825 160.133 245.058 160.81 244.529C161.492 243.996 162.31 243.73 163.265 243.73C164.219 243.73 165.035 243.996 165.713 244.529C166.395 245.058 166.915 245.825 167.272 246.83C167.635 247.832 167.816 249.04 167.816 250.455C167.816 251.878 167.637 253.092 167.279 254.098C166.921 255.099 166.403 255.864 165.726 256.393C165.048 256.917 164.228 257.179 163.265 257.179ZM163.265 255.773C164.219 255.773 164.961 255.312 165.489 254.392C166.017 253.472 166.282 252.159 166.282 250.455C166.282 249.321 166.16 248.356 165.917 247.559C165.679 246.762 165.334 246.155 164.882 245.737C164.434 245.32 163.895 245.111 163.265 245.111C162.319 245.111 161.579 245.577 161.047 246.511C160.514 247.44 160.248 248.754 160.248 250.455C160.248 251.588 160.367 252.551 160.606 253.344C160.844 254.136 161.187 254.739 161.635 255.153C162.086 255.566 162.63 255.773 163.265 255.773ZM170.302 257L176.157 245.418V245.315H169.407V243.909H177.794V245.392L171.964 257H170.302Z" fill="#808080"/>
</svg>
