<svg width="1233" height="327" viewBox="0 0 1233 327" fill="none" xmlns="http://www.w3.org/2000/svg">
<rect x="535" width="162" height="128" fill="white"/>
<rect x="1233" y="128" width="50.0001" height="1231" transform="rotate(90 1233 128)" fill="white"/>
<rect x="2" width="532" height="128" fill="white"/>
<rect x="697" width="534" height="128" fill="white"/>
<rect x="2" y="178" width="393" height="147" fill="white"/>
<rect x="599" y="178" width="632" height="147" fill="white"/>
<rect id="kab412" x="395" y="178" width="204" height="147" fill="white"/>
<path fill-rule="evenodd" clip-rule="evenodd" d="M1233 0H0V327H1233V0ZM3 127V3H136.111V127H82.0655C81.2371 127 80.5655 127.672 80.5655 128.5C80.5655 129.328 81.2371 130 82.0655 130H195.157C195.986 130 196.657 129.328 196.657 128.5C196.657 127.672 195.986 127 195.157 127H139.111V3H271.221V127H224.181C223.353 127 222.681 127.672 222.681 128.5C222.681 129.328 223.353 130 224.181 130H346.781C347.609 130 348.281 129.328 348.281 128.5C348.281 127.672 347.609 127 346.781 127H274.221V3H401.326V126.5C401.326 126.776 401.102 127 400.826 127H377.306C376.477 127 375.806 127.672 375.806 128.5C375.806 129.328 376.477 130 377.306 130H400.826C402.759 130 404.326 128.433 404.326 126.5V3H455.37V126.5C455.37 128.433 456.937 130 458.87 130H485.393C486.222 130 486.893 129.328 486.893 128.5C486.893 127.672 486.222 127 485.393 127H458.87C458.594 127 458.37 126.776 458.37 126.5V3H532.433V127H515.418C514.589 127 513.918 127.672 513.918 128.5C513.918 129.328 514.589 130 515.418 130H627.5C628.328 130 629 129.328 629 128.5C629 127.672 628.328 127 627.5 127H535.433V3H609.496H612.496H695.566V127H661.537C660.708 127 660.037 127.672 660.037 128.5C660.037 129.328 660.708 130 661.537 130H719.584C720.412 130 721.084 129.328 721.084 128.5C721.084 127.672 720.412 127 719.584 127H698.566V3H784.138H787.138H872.71V127H754C753.172 127 752.5 127.672 752.5 128.5C752.5 129.328 753.172 130 754 130H998.811C999.639 130 1000.31 129.328 1000.31 128.5C1000.31 127.672 999.639 127 998.811 127H875.71V3H1051.86V127H1029.1C1028.27 127 1027.6 127.672 1027.6 128.5C1027.6 129.328 1028.27 130 1029.1 130H1116.91C1117.74 130 1118.41 129.328 1118.41 128.5C1118.41 127.672 1117.74 127 1116.91 127H1054.86V3H1230V127H1146.93C1146.1 127 1145.43 127.672 1145.43 128.5C1145.43 129.328 1146.1 130 1146.93 130H1230V177H1146.93C1146.1 177 1145.43 177.672 1145.43 178.5C1145.43 179.328 1146.1 180 1146.93 180H1230V324H1106.9V180H1116.91C1117.74 180 1118.41 179.328 1118.41 178.5C1118.41 177.672 1117.74 177 1116.91 177H1028.84C1028.01 177 1027.34 177.672 1027.34 178.5C1027.34 179.328 1028.01 180 1028.84 180H1103.9V324H979.794V180H998.811C999.639 180 1000.31 179.328 1000.31 178.5C1000.31 177.672 999.639 177 998.811 177H970.788C969.96 177 969.288 177.672 969.288 178.5C969.288 179.328 969.96 180 970.788 180H976.794V324H935.758V180H942.765C943.594 180 944.265 179.328 944.265 178.5C944.265 177.672 943.594 177 942.765 177H932.758V324H881.714V180.5C881.714 178.567 880.147 177 878.214 177H860.198C859.37 177 858.698 177.672 858.698 178.5C858.698 179.328 859.37 180 860.198 180H878.214C878.491 180 878.714 180.224 878.714 180.5V324H789.64V180H829.673C830.502 180 831.173 179.328 831.173 178.5C831.173 177.672 830.502 177 829.673 177H768.123C767.295 177 766.623 177.672 766.623 178.5C766.623 179.328 767.295 180 768.123 180H786.64V324H739.099V180.5C739.099 178.567 737.531 177 735.599 177H568.461C567.633 177 566.961 177.672 566.961 178.5C566.961 179.328 567.633 180 568.461 180H597V324H395.319V180H546.943C547.772 180 548.443 179.328 548.443 178.5C548.443 177.672 547.772 177 546.943 177H376.305C375.476 177 374.805 177.672 374.805 178.5C374.805 179.328 375.476 180 376.305 180H392.319V324H322.26V180H346.28C347.109 180 347.78 179.328 347.78 178.5C347.78 177.672 347.109 177 346.28 177H283.229C282.401 177 281.729 177.672 281.729 178.5C281.729 179.328 282.401 180 283.229 180H319.26V324H219.176V180H252.704C253.533 180 254.204 179.328 254.204 178.5C254.204 177.672 253.533 177 252.704 177H88C87.1716 177 86.5 177.672 86.5 178.5C86.5 179.328 87.1716 180 88 180H216.176V324H107.085H104.085H3V180H54.0427C54.8711 180 55.5427 179.328 55.5427 178.5C55.5427 177.672 54.8711 177 54.0427 177H3V130H53.0419C53.8703 130 54.5419 129.328 54.5419 128.5C54.5419 127.672 53.8703 127 53.0419 127H3ZM736.099 180.5V324H600V180H735.599C735.875 180 736.099 180.224 736.099 180.5Z" fill="#CDCDCD"/>
<path fill-rule="evenodd" clip-rule="evenodd" d="M420.247 43.5L441.48 26H446.976V28.5H443.229V34.75H440.731V29.875L421.996 45.375V49.75H419.498V46H417V43.5H420.247ZM431.988 41H438.233V36H446.976V38.5H440.731V43.5H434.486V48.5H428.241V53.5H421.996V56H419.498V51H425.743V46H431.988V41Z" fill="#808080"/>
<path fill-rule="evenodd" clip-rule="evenodd" d="M898.247 291.5L919.48 274H924.976V276.5H921.229V282.75H918.731V277.875L899.996 293.375V297.75H897.498V294H895V291.5H898.247ZM909.988 289H916.233V284H924.976V286.5H918.731V291.5H912.486V296.5H906.241V301.5H899.996V304H897.498V299H903.743V294H909.988V289Z" fill="#808080"/>
<path d="M962.086 250.126C961.528 250.126 961.071 250.701 961.071 251.408V252.525H970.077V251.408C970.077 250.701 969.633 250.126 969.075 250.126H962.086ZM961.262 253.401V261.97H951.063L951 264.674H969.253C969.862 264.674 969.851 264.261 969.989 263.951V253.401H961.262ZM951.19 265.499C952.019 267.983 953.537 269.876 955.541 271.352C955.674 272.777 954.294 273.992 953.334 275.261H968.06C966.238 273.187 965.377 271.017 965.232 268.774C966.065 267.683 966.579 266.591 966.741 265.499H951.19Z" fill="#808080"/>
<path d="M600.208 67.3153V66.0114L605.961 56.9091H606.907V58.929H606.268L601.922 65.8068V65.9091H609.669V67.3153H600.208ZM606.37 70V66.919V66.3118V56.9091H607.879V70H606.37ZM612.064 70V68.8494L616.385 64.1193C616.892 63.5653 617.31 63.0838 617.638 62.6747C617.966 62.2614 618.209 61.8736 618.367 61.5114C618.529 61.1449 618.61 60.7614 618.61 60.3608C618.61 59.9006 618.499 59.5021 618.277 59.1655C618.06 58.8288 617.762 58.5689 617.382 58.3857C617.003 58.2024 616.577 58.1108 616.104 58.1108C615.601 58.1108 615.162 58.2152 614.787 58.424C614.416 58.6286 614.129 58.9162 613.924 59.2869C613.724 59.6577 613.624 60.0923 613.624 60.5909H612.115C612.115 59.8239 612.292 59.1506 612.646 58.571C612.999 57.9915 613.481 57.5398 614.09 57.2159C614.704 56.892 615.392 56.7301 616.155 56.7301C616.922 56.7301 617.602 56.892 618.194 57.2159C618.786 57.5398 619.251 57.9766 619.588 58.5263C619.924 59.076 620.093 59.6875 620.093 60.3608C620.093 60.8423 620.005 61.3132 619.83 61.7734C619.66 62.2294 619.362 62.7386 618.936 63.3011C618.514 63.8594 617.928 64.5412 617.178 65.3466L614.237 68.4915V68.5938H620.323V70H612.064ZM627.309 70.179C626.772 70.1705 626.235 70.0682 625.698 69.8722C625.161 69.6761 624.671 69.3459 624.228 68.8814C623.785 68.4126 623.429 67.7798 623.161 66.983C622.892 66.1818 622.758 65.1761 622.758 63.9659C622.758 62.8068 622.867 61.7798 623.084 60.8849C623.301 59.9858 623.617 59.2294 624.03 58.6158C624.443 57.9979 624.942 57.5291 625.526 57.2095C626.114 56.8899 626.776 56.7301 627.514 56.7301C628.247 56.7301 628.899 56.8771 629.47 57.1712C630.045 57.4609 630.514 57.8658 630.876 58.3857C631.238 58.9055 631.472 59.5043 631.579 60.1818H630.019C629.874 59.5937 629.593 59.1058 629.176 58.718C628.758 58.3303 628.204 58.1364 627.514 58.1364C626.499 58.1364 625.7 58.5774 625.117 59.4595C624.537 60.3416 624.245 61.5795 624.241 63.1733H624.343C624.582 62.8111 624.865 62.5021 625.193 62.2464C625.526 61.9865 625.892 61.7862 626.293 61.6456C626.693 61.505 627.117 61.4347 627.565 61.4347C628.315 61.4347 629.001 61.6222 629.623 61.9972C630.245 62.3679 630.744 62.8814 631.119 63.5376C631.494 64.1896 631.681 64.9375 631.681 65.7812C631.681 66.5909 631.5 67.3324 631.138 68.0057C630.776 68.6747 630.267 69.2074 629.61 69.6037C628.958 69.9957 628.191 70.1875 627.309 70.179ZM627.309 68.7727C627.846 68.7727 628.328 68.6385 628.754 68.37C629.184 68.1016 629.523 67.7415 629.77 67.2898C630.021 66.8381 630.147 66.3352 630.147 65.7812C630.147 65.2401 630.026 64.7479 629.783 64.3047C629.544 63.8572 629.214 63.5014 628.792 63.2372C628.374 62.973 627.897 62.8409 627.36 62.8409C626.955 62.8409 626.578 62.9219 626.229 63.0838C625.879 63.2415 625.573 63.4588 625.308 63.7358C625.048 64.0128 624.844 64.3303 624.695 64.6882C624.546 65.0419 624.471 65.4148 624.471 65.8068C624.471 66.3267 624.593 66.8125 624.835 67.2642C625.083 67.7159 625.419 68.0803 625.845 68.3572C626.276 68.6342 626.764 68.7727 627.309 68.7727Z" fill="#808080"/>
<path d="M482.229 255.315V254.011L487.982 244.909H488.928V246.929H488.289L483.942 253.807V253.909H491.689V255.315H482.229ZM488.391 258V254.919V254.312V244.909H489.899V258H488.391ZM498.511 244.909V258H496.926V246.571H496.849L493.653 248.693V247.082L496.926 244.909H498.511ZM502.276 258V256.849L506.597 252.119C507.104 251.565 507.522 251.084 507.85 250.675C508.178 250.261 508.421 249.874 508.579 249.511C508.741 249.145 508.821 248.761 508.821 248.361C508.821 247.901 508.711 247.502 508.489 247.165C508.272 246.829 507.973 246.569 507.594 246.386C507.215 246.202 506.789 246.111 506.316 246.111C505.813 246.111 505.374 246.215 504.999 246.424C504.628 246.629 504.341 246.916 504.136 247.287C503.936 247.658 503.836 248.092 503.836 248.591H502.327C502.327 247.824 502.504 247.151 502.858 246.571C503.211 245.991 503.693 245.54 504.302 245.216C504.916 244.892 505.604 244.73 506.367 244.73C507.134 244.73 507.814 244.892 508.406 245.216C508.998 245.54 509.463 245.977 509.799 246.526C510.136 247.076 510.304 247.688 510.304 248.361C510.304 248.842 510.217 249.313 510.042 249.773C509.872 250.229 509.574 250.739 509.147 251.301C508.726 251.859 508.14 252.541 507.39 253.347L504.449 256.491V256.594H510.535V258H502.276Z" fill="#808080"/>
<path d="M479.183 67.3153L479.183 66.0114L484.936 56.9091L485.882 56.9091L485.882 58.929L485.243 58.929L480.896 65.8068L480.896 65.9091L488.643 65.9091L488.643 67.3153L479.183 67.3153ZM485.345 70L485.345 66.919L485.345 66.3118L485.345 56.9091L486.854 56.9091L486.854 70L485.345 70ZM495.309 70.179C494.346 70.179 493.525 69.9169 492.848 69.3928C492.17 68.8643 491.652 68.0994 491.294 67.098C490.936 66.0923 490.757 64.8778 490.757 63.4545C490.757 62.0398 490.936 60.8317 491.294 59.8303C491.657 58.8246 492.176 58.0575 492.854 57.5291C493.536 56.9964 494.354 56.7301 495.309 56.7301C496.263 56.7301 497.079 56.9964 497.757 57.5291C498.439 58.0575 498.958 58.8246 499.316 59.8303C499.679 60.8317 499.86 62.0398 499.86 63.4545C499.86 64.8778 499.681 66.0923 499.323 67.098C498.965 68.0994 498.447 68.8643 497.77 69.3928C497.092 69.9169 496.272 70.179 495.309 70.179ZM495.309 68.7727C496.263 68.7727 497.005 68.3125 497.533 67.392C498.061 66.4716 498.326 65.1591 498.326 63.4545C498.326 62.321 498.204 61.3558 497.961 60.5589C497.723 59.7621 497.377 59.1548 496.926 58.7372C496.478 58.3196 495.939 58.1108 495.309 58.1108C494.363 58.1108 493.623 58.5774 493.091 59.5107C492.558 60.4396 492.292 61.7543 492.292 63.4545C492.292 64.5881 492.411 65.5511 492.65 66.3437C492.888 67.1364 493.231 67.7393 493.679 68.1527C494.13 68.5661 494.674 68.7727 495.309 68.7727ZM502.346 70L508.201 58.4176L508.201 58.3153L501.451 58.3153L501.451 56.9091L509.838 56.9091L509.838 58.392L504.008 70L502.346 70Z" fill="#808080"/>
<path d="M1156.54 260.315V259.011L1162.29 249.909H1163.24V251.929H1162.6L1158.25 258.807V258.909H1166V260.315H1156.54ZM1162.7 263V259.919V259.312V249.909H1164.21V263H1162.7ZM1172.82 249.909V263H1171.23V251.571H1171.16L1167.96 253.693V252.082L1171.23 249.909H1172.82ZM1176.99 263L1182.85 251.418V251.315H1176.1V249.909H1184.48V251.392L1178.65 263H1176.99Z" fill="#808080"/>
<path d="M255.313 249.315V248.011L261.066 238.909H262.012V240.929H261.373L257.026 247.807V247.909H264.773V249.315H255.313ZM261.475 252V248.919V248.312V238.909H262.983V252H261.475ZM271.592 252.179C270.748 252.179 269.996 252.034 269.335 251.744C268.679 251.455 268.157 251.052 267.769 250.536C267.386 250.016 267.177 249.413 267.143 248.727H268.754C268.788 249.149 268.933 249.513 269.188 249.82C269.444 250.123 269.779 250.357 270.192 250.523C270.605 250.69 271.063 250.773 271.566 250.773C272.129 250.773 272.627 250.675 273.062 250.479C273.497 250.283 273.838 250.01 274.085 249.661C274.332 249.311 274.456 248.906 274.456 248.446C274.456 247.964 274.336 247.54 274.098 247.174C273.859 246.803 273.509 246.513 273.049 246.305C272.589 246.096 272.027 245.991 271.362 245.991H270.313V244.585H271.362C271.882 244.585 272.338 244.491 272.73 244.304C273.126 244.116 273.435 243.852 273.657 243.511C273.882 243.17 273.995 242.77 273.995 242.31C273.995 241.866 273.897 241.481 273.701 241.153C273.505 240.825 273.228 240.569 272.87 240.386C272.517 240.202 272.099 240.111 271.617 240.111C271.166 240.111 270.74 240.194 270.339 240.36C269.943 240.522 269.619 240.759 269.367 241.07C269.116 241.376 268.98 241.747 268.958 242.182H267.424C267.45 241.496 267.657 240.895 268.044 240.379C268.432 239.859 268.939 239.455 269.566 239.165C270.196 238.875 270.889 238.73 271.643 238.73C272.453 238.73 273.147 238.894 273.727 239.222C274.306 239.546 274.752 239.974 275.063 240.507C275.374 241.04 275.529 241.615 275.529 242.233C275.529 242.97 275.335 243.599 274.948 244.119C274.564 244.638 274.042 244.999 273.382 245.199V245.301C274.208 245.437 274.854 245.789 275.318 246.356C275.783 246.918 276.015 247.615 276.015 248.446C276.015 249.158 275.821 249.797 275.434 250.364C275.05 250.926 274.526 251.369 273.861 251.693C273.196 252.017 272.44 252.179 271.592 252.179ZM283.053 252.179C282.209 252.179 281.457 252.034 280.796 251.744C280.14 251.455 279.618 251.052 279.23 250.536C278.847 250.016 278.638 249.413 278.604 248.727H280.215C280.249 249.149 280.394 249.513 280.649 249.82C280.905 250.123 281.24 250.357 281.653 250.523C282.066 250.69 282.524 250.773 283.027 250.773C283.59 250.773 284.088 250.675 284.523 250.479C284.958 250.283 285.299 250.01 285.546 249.661C285.793 249.311 285.916 248.906 285.916 248.446C285.916 247.964 285.797 247.54 285.559 247.174C285.32 246.803 284.97 246.513 284.51 246.305C284.05 246.096 283.487 245.991 282.823 245.991H281.774V244.585H282.823C283.343 244.585 283.799 244.491 284.191 244.304C284.587 244.116 284.896 243.852 285.117 243.511C285.343 243.17 285.456 242.77 285.456 242.31C285.456 241.866 285.358 241.481 285.162 241.153C284.966 240.825 284.689 240.569 284.331 240.386C283.978 240.202 283.56 240.111 283.078 240.111C282.627 240.111 282.201 240.194 281.8 240.36C281.404 240.522 281.08 240.759 280.828 241.07C280.577 241.376 280.441 241.747 280.419 242.182H278.885C278.911 241.496 279.117 240.895 279.505 240.379C279.893 239.859 280.4 239.455 281.027 239.165C281.657 238.875 282.35 238.73 283.104 238.73C283.914 238.73 284.608 238.894 285.188 239.222C285.767 239.546 286.213 239.974 286.524 240.507C286.835 241.04 286.99 241.615 286.99 242.233C286.99 242.97 286.796 243.599 286.409 244.119C286.025 244.638 285.503 244.999 284.843 245.199V245.301C285.669 245.437 286.315 245.789 286.779 246.356C287.244 246.918 287.476 247.615 287.476 248.446C287.476 249.158 287.282 249.797 286.894 250.364C286.511 250.926 285.987 251.369 285.322 251.693C284.657 252.017 283.901 252.179 283.053 252.179Z" fill="#808080"/>
<path d="M947.203 74.3153V73.0114L952.955 63.9091H953.901V65.929H953.262L948.916 72.8068V72.9091H956.663V74.3153H947.203ZM953.365 77V73.919V73.3118V63.9091H954.873V77H953.365ZM963.485 63.9091V77H961.9V65.571H961.823L958.627 67.6932V66.0824L961.9 63.9091H963.485ZM971.341 77.179C970.591 77.179 969.915 77.0298 969.314 76.7315C968.713 76.4332 968.232 76.0241 967.87 75.5043C967.507 74.9844 967.309 74.392 967.275 73.7273H968.809C968.869 74.3196 969.137 74.8097 969.615 75.1974C970.096 75.581 970.672 75.7727 971.341 75.7727C971.877 75.7727 972.355 75.647 972.772 75.3956C973.194 75.1442 973.525 74.799 973.763 74.3601C974.006 73.9169 974.127 73.4162 974.127 72.858C974.127 72.2869 974.002 71.7777 973.75 71.3303C973.503 70.8786 973.162 70.5227 972.728 70.2628C972.293 70.0028 971.797 69.8707 971.238 69.8665C970.838 69.8622 970.426 69.924 970.005 70.0518C969.583 70.1754 969.235 70.3352 968.963 70.5312L967.48 70.3523L968.272 63.9091H975.074V65.3153H969.602L969.142 69.1761H969.218C969.487 68.9631 969.824 68.7862 970.228 68.6456C970.633 68.505 971.055 68.4347 971.494 68.4347C972.295 68.4347 973.009 68.6264 973.635 69.0099C974.266 69.3892 974.76 69.9091 975.118 70.5696C975.48 71.2301 975.662 71.9844 975.662 72.8324C975.662 73.6676 975.474 74.4134 975.099 75.0696C974.728 75.7216 974.217 76.2372 973.565 76.6165C972.913 76.9915 972.172 77.179 971.341 77.179Z" fill="#808080"/>
<path d="M1130.06 74.3153V73.0114L1135.81 63.9091H1136.76V65.929H1136.12L1131.78 72.8068V72.9091H1139.52V74.3153H1130.06ZM1136.22 77V73.919V73.3118V63.9091H1137.73V77H1136.22ZM1146.34 63.9091V77H1144.76V65.571H1144.68L1141.49 67.6932V66.0824L1144.76 63.9091H1146.34ZM1154.46 77.179C1153.92 77.1705 1153.38 77.0682 1152.84 76.8722C1152.31 76.6761 1151.82 76.3459 1151.37 75.8814C1150.93 75.4126 1150.58 74.7798 1150.31 73.983C1150.04 73.1818 1149.9 72.1761 1149.9 70.9659C1149.9 69.8068 1150.01 68.7798 1150.23 67.8849C1150.45 66.9858 1150.76 66.2294 1151.18 65.6158C1151.59 64.9979 1152.09 64.5291 1152.67 64.2095C1153.26 63.8899 1153.92 63.7301 1154.66 63.7301C1155.39 63.7301 1156.05 63.8771 1156.62 64.1712C1157.19 64.4609 1157.66 64.8658 1158.02 65.3857C1158.38 65.9055 1158.62 66.5043 1158.73 67.1818H1157.17C1157.02 66.5937 1156.74 66.1058 1156.32 65.718C1155.9 65.3303 1155.35 65.1364 1154.66 65.1364C1153.65 65.1364 1152.85 65.5774 1152.26 66.4595C1151.68 67.3416 1151.39 68.5795 1151.39 70.1733H1151.49C1151.73 69.8111 1152.01 69.5021 1152.34 69.2464C1152.67 68.9865 1153.04 68.7862 1153.44 68.6456C1153.84 68.505 1154.26 68.4347 1154.71 68.4347C1155.46 68.4347 1156.15 68.6222 1156.77 68.9972C1157.39 69.3679 1157.89 69.8814 1158.27 70.5376C1158.64 71.1896 1158.83 71.9375 1158.83 72.7812C1158.83 73.5909 1158.65 74.3324 1158.28 75.0057C1157.92 75.6747 1157.41 76.2074 1156.76 76.6037C1156.1 76.9957 1155.34 77.1875 1154.46 77.179ZM1154.46 75.7727C1154.99 75.7727 1155.47 75.6385 1155.9 75.37C1156.33 75.1016 1156.67 74.7415 1156.92 74.2898C1157.17 73.8381 1157.29 73.3352 1157.29 72.7812C1157.29 72.2401 1157.17 71.7479 1156.93 71.3047C1156.69 70.8572 1156.36 70.5014 1155.94 70.2372C1155.52 69.973 1155.04 69.8409 1154.51 69.8409C1154.1 69.8409 1153.72 69.9219 1153.38 70.0838C1153.03 70.2415 1152.72 70.4588 1152.45 70.7358C1152.19 71.0128 1151.99 71.3303 1151.84 71.6882C1151.69 72.0419 1151.62 72.4148 1151.62 72.8068C1151.62 73.3267 1151.74 73.8125 1151.98 74.2642C1152.23 74.7159 1152.57 75.0803 1152.99 75.3572C1153.42 75.6342 1153.91 75.7727 1154.46 75.7727Z" fill="#808080"/>
</svg>
