<svg width="1233" height="329" viewBox="0 0 1233 329" fill="none" xmlns="http://www.w3.org/2000/svg">
<rect id="otdih_2" x="476" y="180" width="222" height="149" fill="white"/>
<rect id="kab216" x="979" y="180" width="128" height="146" fill="white"/>
<rect id="kab215" x="1107" y="180" width="123" height="146" fill="white"/>
<rect y="130" width="1230" height="51" fill="white"/>
<rect x="1056" y="2" width="175" height="131" fill="white"/>
<path d="M824 28.8094H833.818V30.3179H829.548V31.3151L833.818 34.8435V36.7867L829.088 32.8236L824 36.8378V34.8946L828.142 31.673V30.3179H824V28.8094ZM823.795 42.0617C823.795 41.1753 824.006 40.3976 824.428 39.7286C824.85 39.0638 825.44 38.5439 826.199 38.1689C826.957 37.7982 827.844 37.6128 828.858 37.6128C829.881 37.6128 830.773 37.7982 831.536 38.1689C832.299 38.5439 832.891 39.0638 833.313 39.7286C833.735 40.3976 833.946 41.1753 833.946 42.0617C833.946 42.9481 833.735 43.7236 833.313 44.3884C832.891 45.0574 832.299 45.5773 831.536 45.9481C830.773 46.3231 829.881 46.5106 828.858 46.5106C827.844 46.5106 826.957 46.3231 826.199 45.9481C825.44 45.5773 824.85 45.0574 824.428 44.3884C824.006 43.7236 823.795 42.9481 823.795 42.0617ZM825.151 42.0617C825.151 42.735 825.323 43.289 825.668 43.7236C826.013 44.1583 826.467 44.48 827.03 44.6888C827.592 44.8976 828.202 45.002 828.858 45.002C829.514 45.002 830.126 44.8976 830.692 44.6888C831.259 44.48 831.717 44.1583 832.067 43.7236C832.416 43.289 832.591 42.735 832.591 42.0617C832.591 41.3884 832.416 40.8344 832.067 40.3998C831.717 39.9651 831.259 39.6434 830.692 39.4346C830.126 39.2258 829.514 39.1214 828.858 39.1214C828.202 39.1214 827.592 39.2258 827.03 39.4346C826.467 39.6434 826.013 39.9651 825.668 40.3998C825.323 40.8344 825.151 41.3884 825.151 42.0617ZM824 47.944H825.406V48.3019C825.406 48.596 825.464 48.841 825.579 49.037C825.698 49.233 825.905 49.3907 826.199 49.51C826.497 49.6336 826.911 49.7274 827.439 49.7913C827.972 49.8595 828.649 49.9085 829.472 49.9383L833.818 50.1173V56.6627H824V55.1542H832.412V51.5491L828.909 51.3957C828.104 51.3616 827.394 51.2892 826.781 51.1784C826.171 51.0718 825.66 50.9078 825.246 50.6862C824.833 50.4688 824.522 50.1791 824.313 49.8169C824.104 49.4546 824 49.0008 824 48.4553V47.944ZM823.795 63.547C823.795 62.6009 824.004 61.7849 824.422 61.0988C824.844 60.417 825.432 59.8907 826.186 59.52C826.945 59.1535 827.827 58.9703 828.832 58.9703C829.838 58.9703 830.724 59.1535 831.491 59.52C832.263 59.8907 832.864 60.4063 833.294 61.0669C833.729 61.7316 833.946 62.5072 833.946 63.3936C833.946 63.9049 833.861 64.4099 833.69 64.9085C833.52 65.407 833.243 65.8609 832.859 66.27C832.48 66.6791 831.977 67.0051 831.351 67.248C830.724 67.4909 829.953 67.6123 829.037 67.6123H828.398V60.0441H829.702V66.0782C830.256 66.0782 830.75 65.9674 831.185 65.7458C831.619 65.5285 831.962 65.2174 832.214 64.8126C832.465 64.412 832.591 63.939 832.591 63.3936C832.591 62.7927 832.442 62.2728 832.143 61.8339C831.849 61.3992 831.466 61.0647 830.993 60.8303C830.52 60.596 830.013 60.4788 829.472 60.4788H828.602C827.861 60.4788 827.232 60.6066 826.717 60.8623C826.205 61.1222 825.815 61.4823 825.547 61.9426C825.283 62.4028 825.151 62.9376 825.151 63.547C825.151 63.9433 825.206 64.3012 825.317 64.6208C825.432 64.9447 825.602 65.2238 825.828 65.4582C826.058 65.6926 826.344 65.8737 826.685 66.0015L826.276 67.4589C825.781 67.3055 825.347 67.0477 824.972 66.6855C824.601 66.3232 824.311 65.8758 824.102 65.3431C823.898 64.8105 823.795 64.2117 823.795 63.547ZM823.795 73.8957C823.795 72.9752 824.013 72.1826 824.447 71.5178C824.882 70.8531 825.481 70.3417 826.244 69.9838C827.006 69.6258 827.878 69.4468 828.858 69.4468C829.855 69.4468 830.735 69.6301 831.498 69.9965C832.265 70.3673 832.864 70.8829 833.294 71.5434C833.729 72.2082 833.946 72.9838 833.946 73.8701C833.946 74.5605 833.818 75.1826 833.562 75.7366C833.307 76.2906 832.949 76.7444 832.489 77.0981C832.028 77.4518 831.491 77.6713 830.878 77.7565V76.248C831.325 76.1329 831.722 75.8772 832.067 75.4809C832.416 75.0889 832.591 74.5605 832.591 73.8957C832.591 73.3076 832.438 72.792 832.131 72.3488C831.828 71.9099 831.4 71.5669 830.846 71.3197C830.296 71.0768 829.651 70.9553 828.909 70.9553C828.151 70.9553 827.49 71.0747 826.928 71.3133C826.365 71.5562 825.928 71.8971 825.617 72.336C825.306 72.7792 825.151 73.2991 825.151 73.8957C825.151 74.2877 825.219 74.6436 825.355 74.9632C825.491 75.2828 825.688 75.5534 825.943 75.7749C826.199 75.9965 826.506 76.1542 826.864 76.248V77.7565C826.284 77.6713 825.762 77.4603 825.298 77.1237C824.837 76.7913 824.471 76.3502 824.198 75.8005C823.93 75.2551 823.795 74.6201 823.795 73.8957ZM823.795 83.9504C823.795 83.064 824.006 82.2863 824.428 81.6173C824.85 80.9525 825.44 80.4326 826.199 80.0576C826.957 79.6869 827.844 79.5015 828.858 79.5015C829.881 79.5015 830.773 79.6869 831.536 80.0576C832.299 80.4326 832.891 80.9525 833.313 81.6173C833.735 82.2863 833.946 83.064 833.946 83.9504C833.946 84.8367 833.735 85.6123 833.313 86.2771C832.891 86.9461 832.299 87.466 831.536 87.8367C830.773 88.2117 829.881 88.3992 828.858 88.3992C827.844 88.3992 826.957 88.2117 826.199 87.8367C825.44 87.466 824.85 86.9461 824.428 86.2771C824.006 85.6123 823.795 84.8367 823.795 83.9504ZM825.151 83.9504C825.151 84.6237 825.323 85.1776 825.668 85.6123C826.013 86.047 826.467 86.3687 827.03 86.5775C827.592 86.7863 828.202 86.8907 828.858 86.8907C829.514 86.8907 830.126 86.7863 830.692 86.5775C831.259 86.3687 831.717 86.047 832.067 85.6123C832.416 85.1776 832.591 84.6237 832.591 83.9504C832.591 83.2771 832.416 82.7231 832.067 82.2884C831.717 81.8538 831.259 81.532 830.692 81.3232C830.126 81.1144 829.514 81.01 828.858 81.01C828.202 81.01 827.592 81.1144 827.03 81.3232C826.467 81.532 826.013 81.8538 825.668 82.2884C825.323 82.7231 825.151 83.2771 825.151 83.9504ZM824 90.702H833.818V94.7162C833.818 95.773 833.58 96.6125 833.102 97.2346C832.625 97.8568 831.994 98.1679 831.21 98.1679C830.614 98.1679 830.151 97.991 829.823 97.6373C829.499 97.2836 829.28 96.8298 829.165 96.2758C829.114 96.6381 828.986 96.9896 828.781 97.3305C828.577 97.6757 828.295 97.9612 827.938 98.1871C827.584 98.4129 827.149 98.5258 826.634 98.5258C826.131 98.5258 825.681 98.398 825.285 98.1423C824.888 97.8866 824.575 97.5202 824.345 97.0429C824.115 96.5656 824 95.9946 824 95.3298V90.702ZM825.381 92.1338V95.3298C825.381 95.8497 825.504 96.2567 825.751 96.5507C825.999 96.8447 826.335 96.9917 826.761 96.9917C827.268 96.9917 827.667 96.8447 827.957 96.5507C828.251 96.2567 828.398 95.8497 828.398 95.3298V92.1338H825.381ZM829.702 92.1338V94.7162C829.702 95.121 829.757 95.4683 829.868 95.7581C829.983 96.0479 830.145 96.2694 830.354 96.4229C830.567 96.5805 830.818 96.6594 831.108 96.6594C831.521 96.6594 831.845 96.4868 832.08 96.1416C832.318 95.7964 832.438 95.3213 832.438 94.7162V92.1338H829.702ZM823.77 103.699C823.77 103.076 823.887 102.512 824.121 102.005C824.36 101.498 824.703 101.095 825.151 100.797C825.602 100.498 826.148 100.349 826.787 100.349C827.349 100.349 827.805 100.46 828.155 100.682C828.509 100.903 828.786 101.199 828.986 101.57C829.186 101.941 829.335 102.35 829.433 102.797C829.536 103.249 829.616 103.703 829.676 104.159C829.753 104.755 829.81 105.239 829.849 105.61C829.891 105.985 829.962 106.258 830.06 106.428C830.158 106.603 830.328 106.69 830.571 106.69H830.622C831.253 106.69 831.743 106.517 832.092 106.172C832.442 105.831 832.616 105.314 832.616 104.619C832.616 103.899 832.459 103.334 832.143 102.925C831.828 102.516 831.491 102.228 831.134 102.062L831.645 100.63C832.241 100.886 832.706 101.227 833.038 101.653C833.375 102.084 833.609 102.552 833.741 103.059C833.878 103.571 833.946 104.074 833.946 104.568C833.946 104.883 833.908 105.245 833.831 105.655C833.759 106.068 833.607 106.466 833.377 106.85C833.147 107.238 832.8 107.559 832.335 107.815C831.871 108.071 831.249 108.199 830.469 108.199H824V106.69H825.33V106.613C825.116 106.511 824.888 106.341 824.646 106.102C824.403 105.863 824.196 105.546 824.026 105.15C823.855 104.753 823.77 104.27 823.77 103.699ZM825.125 103.929C825.125 104.525 825.242 105.028 825.477 105.437C825.711 105.851 826.013 106.162 826.384 106.37C826.755 106.584 827.145 106.69 827.554 106.69H828.935C828.858 106.626 828.788 106.486 828.724 106.268C828.664 106.055 828.611 105.808 828.564 105.527C828.521 105.25 828.483 104.979 828.449 104.715C828.419 104.455 828.393 104.244 828.372 104.082C828.321 103.69 828.238 103.324 828.123 102.983C828.012 102.646 827.844 102.373 827.618 102.165C827.396 101.96 827.094 101.858 826.71 101.858C826.186 101.858 825.79 102.052 825.521 102.439C825.257 102.831 825.125 103.328 825.125 103.929Z" fill="#808080"/>
<path d="M748.795 26.217C748.795 25.3306 749.006 24.5529 749.428 23.8839C749.85 23.2191 750.44 22.6992 751.199 22.3242C751.957 21.9535 752.844 21.7681 753.858 21.7681C754.881 21.7681 755.773 21.9535 756.536 22.3242C757.299 22.6992 757.891 23.2191 758.313 23.8839C758.735 24.5529 758.946 25.3306 758.946 26.217C758.946 27.1033 758.735 27.8789 758.313 28.5437C757.891 29.2127 757.299 29.7326 756.536 30.1033C755.773 30.4783 754.881 30.6658 753.858 30.6658C752.844 30.6658 751.957 30.4783 751.199 30.1033C750.44 29.7326 749.85 29.2127 749.428 28.5437C749.006 27.8789 748.795 27.1033 748.795 26.217ZM750.151 26.217C750.151 26.8903 750.323 27.4442 750.668 27.8789C751.013 28.3136 751.467 28.6353 752.03 28.8441C752.592 29.0529 753.202 29.1573 753.858 29.1573C754.514 29.1573 755.126 29.0529 755.692 28.8441C756.259 28.6353 756.717 28.3136 757.067 27.8789C757.416 27.4442 757.591 26.8903 757.591 26.217C757.591 25.5437 757.416 24.9897 757.067 24.555C756.717 24.1204 756.259 23.7987 755.692 23.5898C755.126 23.381 754.514 23.2766 753.858 23.2766C753.202 23.2766 752.592 23.381 752.03 23.5898C751.467 23.7987 751.013 24.1204 750.668 24.555C750.323 24.9897 750.151 25.5437 750.151 26.217ZM757.412 31.6854H758.818V39.6626H757.412V36.4411H749V34.9325H757.412V31.6854ZM746.188 39.9886H750.406V40.8068C750.615 41.0071 750.841 41.1797 751.084 41.3246C751.327 41.4695 751.614 41.5952 751.947 41.7017C752.283 41.8125 752.692 41.9063 753.174 41.983C753.66 42.0597 754.246 42.1278 754.932 42.1875L758.818 42.5199V48.7585H750.406V50.267H746.188V48.7585H749V41.4972H746.188V39.9886ZM750.406 42.5199V47.25H757.412V43.9261L754.932 43.6705C753.905 43.5639 753.008 43.4318 752.241 43.2741C751.474 43.1165 750.862 42.8651 750.406 42.5199ZM748.795 56.3858C748.795 55.4398 749.004 54.6238 749.422 53.9377C749.844 53.2559 750.432 52.7296 751.186 52.3588C751.945 51.9924 752.827 51.8091 753.832 51.8091C754.838 51.8091 755.724 51.9924 756.491 52.3588C757.263 52.7296 757.864 53.2452 758.294 53.9057C758.729 54.5705 758.946 55.3461 758.946 56.2324C758.946 56.7438 758.861 57.2488 758.69 57.7473C758.52 58.2459 758.243 58.6998 757.859 59.1088C757.48 59.5179 756.977 59.8439 756.351 60.0868C755.724 60.3297 754.953 60.4512 754.037 60.4512H753.398V52.883H754.702V58.9171C755.256 58.9171 755.75 58.8063 756.185 58.5847C756.619 58.3674 756.962 58.0563 757.214 57.6515C757.465 57.2509 757.591 56.7779 757.591 56.2324C757.591 55.6316 757.442 55.1117 757.143 54.6728C756.849 54.2381 756.466 53.9036 755.993 53.6692C755.52 53.4348 755.013 53.3176 754.472 53.3176H753.602C752.861 53.3176 752.232 53.4455 751.717 53.7012C751.205 53.9611 750.815 54.3212 750.547 54.7814C750.283 55.2417 750.151 55.7765 750.151 56.3858C750.151 56.7821 750.206 57.1401 750.317 57.4597C750.432 57.7836 750.602 58.0627 750.828 58.2971C751.058 58.5314 751.344 58.7125 751.685 58.8404L751.276 60.2978C750.781 60.1444 750.347 59.8865 749.972 59.5243C749.601 59.1621 749.311 58.7147 749.102 58.182C748.898 57.6493 748.795 57.0506 748.795 56.3858ZM749 61.8766H750.406V62.2346C750.406 62.5286 750.464 62.7736 750.579 62.9696C750.698 63.1657 750.905 63.3233 751.199 63.4426C751.497 63.5662 751.911 63.66 752.439 63.7239C752.972 63.7921 753.649 63.8411 754.472 63.8709L758.818 64.0499V70.5953H749V69.0868H757.412V65.4817L753.909 65.3283C753.104 65.2942 752.394 65.2218 751.781 65.111C751.171 65.0044 750.66 64.8404 750.246 64.6188C749.833 64.4015 749.522 64.1117 749.313 63.7495C749.104 63.3873 749 62.9334 749 62.388V61.8766ZM748.795 77.4796C748.795 76.5336 749.004 75.7175 749.422 75.0314C749.844 74.3496 750.432 73.8233 751.186 73.4526C751.945 73.0861 752.827 72.9029 753.832 72.9029C754.838 72.9029 755.724 73.0861 756.491 73.4526C757.263 73.8233 757.864 74.339 758.294 74.9995C758.729 75.6642 758.946 76.4398 758.946 77.3262C758.946 77.8375 758.861 78.3425 758.69 78.8411C758.52 79.3397 758.243 79.7935 757.859 80.2026C757.48 80.6117 756.977 80.9377 756.351 81.1806C755.724 81.4235 754.953 81.5449 754.037 81.5449H753.398V73.9767H754.702V80.0108C755.256 80.0108 755.75 79.9 756.185 79.6784C756.619 79.4611 756.962 79.15 757.214 78.7452C757.465 78.3446 757.591 77.8716 757.591 77.3262C757.591 76.7253 757.442 76.2054 757.143 75.7665C756.849 75.3319 756.466 74.9973 755.993 74.763C755.52 74.5286 755.013 74.4114 754.472 74.4114H753.602C752.861 74.4114 752.232 74.5392 751.717 74.7949C751.205 75.0549 750.815 75.415 750.547 75.8752C750.283 76.3354 750.151 76.8702 750.151 77.4796C750.151 77.8759 750.206 78.2338 750.317 78.5534C750.432 78.8773 750.602 79.1564 750.828 79.3908C751.058 79.6252 751.344 79.8063 751.685 79.9341L751.276 81.3915C750.781 81.2381 750.347 80.9803 749.972 80.6181C749.601 80.2559 749.311 79.8084 749.102 79.2757C748.898 78.7431 748.795 78.1444 748.795 77.4796ZM754.599 90.4107H753.193V84.9902H754.599V90.4107ZM758.818 85.3482H749V83.8397H758.818V85.3482ZM758.818 91.5613H749V90.0527H758.818V91.5613ZM751.224 95.8248L758.818 100.555V102.294H749V100.785H756.594L749 96.0804V94.3162H758.818V95.8248H751.224ZM748.795 109.173C748.795 108.227 749.004 107.411 749.422 106.725C749.844 106.043 750.432 105.517 751.186 105.146C751.945 104.779 752.827 104.596 753.832 104.596C754.838 104.596 755.724 104.779 756.491 105.146C757.263 105.517 757.864 106.032 758.294 106.693C758.729 107.358 758.946 108.133 758.946 109.02C758.946 109.531 758.861 110.036 758.69 110.534C758.52 111.033 758.243 111.487 757.859 111.896C757.48 112.305 756.977 112.631 756.351 112.874C755.724 113.117 754.953 113.238 754.037 113.238H753.398V105.67H754.702V111.704C755.256 111.704 755.75 111.593 756.185 111.372C756.619 111.154 756.962 110.843 757.214 110.439C757.465 110.038 757.591 109.565 757.591 109.02C757.591 108.419 757.442 107.899 757.143 107.46C756.849 107.025 756.466 106.691 755.993 106.456C755.52 106.222 755.013 106.105 754.472 106.105H753.602C752.861 106.105 752.232 106.233 751.717 106.488C751.205 106.748 750.815 107.108 750.547 107.569C750.283 108.029 750.151 108.564 750.151 109.173C750.151 109.569 750.206 109.927 750.317 110.247C750.432 110.571 750.602 110.85 750.828 111.084C751.058 111.319 751.344 111.5 751.685 111.627L751.276 113.085C750.781 112.931 750.347 112.674 749.972 112.311C749.601 111.949 749.311 111.502 749.102 110.969C748.898 110.436 748.795 109.838 748.795 109.173ZM729.523 14.5123C731.134 14.5123 732.614 14.7211 733.965 15.1388C735.32 15.5606 736.567 16.1615 737.705 16.9413V18.2709C737.283 17.964 736.763 17.6764 736.145 17.4079C735.531 17.1437 734.856 16.9115 734.119 16.7112C733.386 16.5109 732.627 16.3532 731.843 16.2382C731.059 16.1274 730.286 16.072 729.523 16.072C728.509 16.072 727.479 16.17 726.435 16.366C725.391 16.5621 724.422 16.8263 723.527 17.1586C722.632 17.491 721.903 17.8618 721.341 18.2709V16.9413C722.479 16.1615 723.723 15.5606 725.074 15.1388C726.429 14.7211 727.912 14.5123 729.523 14.5123ZM720.318 20.4969H733.818V21.9543H732.259V22.1333C732.429 22.2441 732.646 22.3975 732.911 22.5935C733.179 22.7938 733.418 23.0793 733.626 23.45C733.839 23.825 733.946 24.3321 733.946 24.9713C733.946 25.798 733.739 26.5267 733.326 27.1574C732.913 27.7881 732.327 28.2803 731.568 28.634C730.81 28.9877 729.915 29.1645 728.884 29.1645C727.844 29.1645 726.942 28.9877 726.18 28.634C725.421 28.2803 724.833 27.7902 724.415 27.1638C724.002 26.5374 723.795 25.8151 723.795 24.9969C723.795 24.3662 723.9 23.8612 724.109 23.482C724.322 23.1027 724.563 22.8108 724.831 22.6063C725.104 22.4017 725.33 22.2441 725.509 22.1333V22.0054H720.318V20.4969ZM728.909 21.9798C728.168 21.9798 727.513 22.0885 726.947 22.3058C726.384 22.5232 725.943 22.8406 725.624 23.2583C725.308 23.6759 725.151 24.1872 725.151 24.7923C725.151 25.423 725.317 25.9493 725.649 26.3712C725.986 26.7973 726.438 27.1169 727.004 27.33C727.575 27.5473 728.21 27.656 728.909 27.656C729.599 27.656 730.222 27.5494 730.776 27.3364C731.334 27.1276 731.775 26.8101 732.099 26.384C732.427 25.9621 732.591 25.4316 732.591 24.7923C732.591 24.1787 732.435 23.6631 732.124 23.2455C731.817 22.8279 731.387 22.5125 730.833 22.2994C730.283 22.0864 729.642 21.9798 728.909 21.9798ZM720.318 32.0857C720.318 31.83 720.339 31.602 720.382 31.4017C720.42 31.2014 720.459 31.0629 720.497 30.9862L721.827 31.3698C721.733 31.7362 721.699 32.0601 721.724 32.3414C721.75 32.6226 721.876 32.8719 722.102 33.0892C722.323 33.3108 722.683 33.5132 723.182 33.6965L723.949 33.9777L733.818 30.347V31.9834L725.994 34.6936V34.7959L733.818 37.5061V39.1425L722.568 34.9749C722.061 34.7874 721.641 34.5551 721.309 34.2781C720.972 34.0012 720.723 33.6794 720.561 33.3129C720.399 32.9507 720.318 32.5416 720.318 32.0857ZM726.045 46.5029L733.818 49.9291V51.3609L724 47.1166V45.8893L733.818 41.7217V43.1279L726.045 46.5029ZM733.818 42.6421H724V41.1336H733.818V42.6421ZM724 50.3637H733.818V51.8722H724V50.3637ZM724 60.5399H732.438V57.9319C732.438 57.3438 732.301 56.8815 732.028 56.5448C731.756 56.2082 731.381 56.0399 730.903 56.0399C730.435 56.0399 730.066 56.1911 729.798 56.4937C729.529 56.8005 729.395 57.2203 729.395 57.7529V60.9234H727.989V57.7529C727.989 57.0882 728.106 56.515 728.34 56.0335C728.575 55.5519 728.909 55.1812 729.344 54.9213C729.783 54.6613 730.303 54.5313 730.903 54.5313C731.509 54.5313 732.028 54.6677 732.463 54.9404C732.898 55.2132 733.232 55.6031 733.467 56.1102C733.701 56.6215 733.818 57.2288 733.818 57.9319V61.9717H724V60.5399ZM724 53.9944L728.884 56.7813V58.4177L724 55.6308V53.9944ZM729.599 71.3121H728.193V65.8916H729.599V71.3121ZM733.818 66.2496H724V64.741H733.818V66.2496ZM733.818 72.4626H724V70.9541H733.818V72.4626ZM733.818 82.9392H725.406V84.3199H720.83V82.8113H724V75.2176H733.818V76.7261H725.406V81.4307H733.818V82.9392ZM723.795 90.6544C723.795 89.7084 724.004 88.8923 724.422 88.2062C724.844 87.5244 725.432 86.9981 726.186 86.6274C726.945 86.2609 727.827 86.0777 728.832 86.0777C729.838 86.0777 730.724 86.2609 731.491 86.6274C732.263 86.9981 732.864 87.5138 733.294 88.1743C733.729 88.839 733.946 89.6146 733.946 90.501C733.946 91.0123 733.861 91.5173 733.69 92.0159C733.52 92.5145 733.243 92.9683 732.859 93.3774C732.48 93.7865 731.977 94.1125 731.351 94.3554C730.724 94.5983 729.953 94.7197 729.037 94.7197H728.398V87.1515H729.702V93.1856C730.256 93.1856 730.75 93.0748 731.185 92.8532C731.619 92.6359 731.962 92.3248 732.214 91.92C732.465 91.5194 732.591 91.0464 732.591 90.501C732.591 89.9001 732.442 89.3802 732.143 88.9413C731.849 88.5067 731.466 88.1721 730.993 87.9378C730.52 87.7034 730.013 87.5862 729.472 87.5862H728.602C727.861 87.5862 727.232 87.714 726.717 87.9697C726.205 88.2297 725.815 88.5898 725.547 89.05C725.283 89.5102 725.151 90.045 725.151 90.6544C725.151 91.0507 725.206 91.4086 725.317 91.7282C725.432 92.0521 725.602 92.3312 725.828 92.5656C726.058 92.8 726.344 92.9811 726.685 93.1089L726.276 94.5663C725.781 94.4129 725.347 94.1551 724.972 93.7929C724.601 93.4307 724.311 92.9832 724.102 92.4506C723.898 91.9179 723.795 91.3192 723.795 90.6544ZM724 97.0145H733.818V101.029C733.818 102.085 733.58 102.925 733.102 103.547C732.625 104.169 731.994 104.48 731.21 104.48C730.614 104.48 730.151 104.304 729.823 103.95C729.499 103.596 729.28 103.142 729.165 102.588C729.114 102.951 728.986 103.302 728.781 103.643C728.577 103.988 728.295 104.274 727.938 104.5C727.584 104.725 727.149 104.838 726.634 104.838C726.131 104.838 725.681 104.71 725.285 104.455C724.888 104.199 724.575 103.833 724.345 103.355C724.115 102.878 724 102.307 724 101.642V97.0145ZM725.381 98.4463V101.642C725.381 102.162 725.504 102.569 725.751 102.863C725.999 103.157 726.335 103.304 726.761 103.304C727.268 103.304 727.667 103.157 727.957 102.863C728.251 102.569 728.398 102.162 728.398 101.642V98.4463H725.381ZM729.702 98.4463V101.029C729.702 101.434 729.757 101.781 729.868 102.071C729.983 102.36 730.145 102.582 730.354 102.735C730.567 102.893 730.818 102.972 731.108 102.972C731.521 102.972 731.845 102.799 732.08 102.454C732.318 102.109 732.438 101.634 732.438 101.029V98.4463H729.702ZM723.77 110.011C723.77 109.389 723.887 108.824 724.121 108.317C724.36 107.81 724.703 107.407 725.151 107.109C725.602 106.811 726.148 106.662 726.787 106.662C727.349 106.662 727.805 106.772 728.155 106.994C728.509 107.216 728.786 107.512 728.986 107.883C729.186 108.253 729.335 108.662 729.433 109.11C729.536 109.562 729.616 110.015 729.676 110.471C729.753 111.068 729.81 111.552 729.849 111.922C729.891 112.297 729.962 112.57 730.06 112.741C730.158 112.915 730.328 113.003 730.571 113.003H730.622C731.253 113.003 731.743 112.83 732.092 112.485C732.442 112.144 732.616 111.626 732.616 110.932C732.616 110.211 732.459 109.647 732.143 109.238C731.828 108.829 731.491 108.541 731.134 108.375L731.645 106.943C732.241 107.199 732.706 107.54 733.038 107.966C733.375 108.396 733.609 108.865 733.741 109.372C733.878 109.883 733.946 110.386 733.946 110.88C733.946 111.196 733.908 111.558 733.831 111.967C733.759 112.38 733.607 112.779 733.377 113.162C733.147 113.55 732.8 113.872 732.335 114.128C731.871 114.383 731.249 114.511 730.469 114.511H724V113.003H725.33V112.926C725.116 112.824 724.888 112.653 724.646 112.415C724.403 112.176 724.196 111.858 724.026 111.462C723.855 111.066 723.77 110.582 723.77 110.011ZM725.125 110.241C725.125 110.838 725.242 111.341 725.477 111.75C725.711 112.163 726.013 112.474 726.384 112.683C726.755 112.896 727.145 113.003 727.554 113.003H728.935C728.858 112.939 728.788 112.798 728.724 112.581C728.664 112.368 728.611 112.12 728.564 111.839C728.521 111.562 728.483 111.292 728.449 111.027C728.419 110.767 728.393 110.557 728.372 110.395C728.321 110.003 728.238 109.636 728.123 109.295C728.012 108.959 727.844 108.686 727.618 108.477C727.396 108.272 727.094 108.17 726.71 108.17C726.186 108.17 725.79 108.364 725.521 108.752C725.257 109.144 725.125 109.64 725.125 110.241ZM729.523 120.486C727.912 120.486 726.429 120.275 725.074 119.853C723.723 119.436 722.479 118.837 721.341 118.057V116.728C721.763 117.034 722.283 117.32 722.901 117.584C723.514 117.853 724.188 118.087 724.92 118.287C725.658 118.487 726.418 118.643 727.202 118.754C727.991 118.869 728.764 118.926 729.523 118.926C730.537 118.926 731.566 118.828 732.61 118.632C733.654 118.436 734.624 118.172 735.518 117.84C736.413 117.507 737.142 117.137 737.705 116.728V118.057C736.567 118.837 735.32 119.436 733.965 119.853C732.614 120.275 731.134 120.486 729.523 120.486Z" fill="#808080"/>
<path d="M1231 131C1231 81.0134 1231 51.9866 1231 2H1054.86M1231 131V181M1231 131L1203.16 131.001M2 130.5V2H138.192M2 130.5V181M2 130.5L69.7747 130.947M1231 181V326.998L1106.9 327M1231 181L1199.16 181.001M2 181V326.998H106.651M2 181L54.255 180.946M105.831 180.946L106.651 326.998M105.831 180.946H162.411M105.831 180.946H80.2924M106.651 326.998H219.814M219.814 326.998L219.5 180.946M219.814 326.998H322.69M219.5 180.946H190.451M219.5 180.946L269.565 180.946M321.139 180.946L322.69 326.998M321.139 180.946H357.692M321.139 180.946H295.603M322.69 326.998H394.298M394.298 326.998L393.979 180.996M394.298 326.998H477.467M393.979 180.996H414.521M393.979 180.996H375.442M477.467 326.998L477.148 180.946L457.108 180.996H435.564M477.467 326.998L696.914 326.551M696.914 326.551L696.595 180.996L742.246 180.946M696.914 326.551L790.103 326.998M789.784 180.946L790.103 326.998M789.784 180.946H834.379M789.784 180.946H765.28M790.103 326.998H882.29M882.29 326.998L881.971 180.946H858.414M882.29 326.998H936.4M936.4 326.998L936.081 180.996H945.601M936.4 326.998H979.488M979.488 326.998L979.169 180.996M979.488 326.998L1106.9 327M979.169 180.996H1010.73M979.169 180.996H967.646M1106.58 180.996L1106.9 327M1106.58 180.996H1175.14M1106.58 180.996H1042.8M1054.86 2L1054.54 130.947M1054.86 2H875.711M1054.54 130.947H1015.64M1054.54 130.947L1178.14 131.001M875.711 131.001V2M875.711 131.001L852.903 130.947M875.711 131.001L993.105 130.947M875.711 2H786.638M786.638 2L785.681 130.947M786.638 2H697.999M785.681 130.947H764.275M785.681 130.947H830.37M697.68 130.947L697.999 2M697.68 130.947H668.637M697.68 130.947H742.243M697.999 2H611.877M611.877 2L611.681 130.947L637.092 130.947M611.877 2H534.763M534.763 2L534.681 130.947L457.333 130.947L457.652 2M534.763 2H457.652M457.652 2H403.574M403.574 2L403.255 130.947H370.708M403.574 2H273.386M273.386 2L273.067 130.947M273.386 2H138.192M273.067 130.947H338.161M273.067 130.947H239.519M138.192 2L137.873 130.947M137.873 130.947H205.47M137.873 130.947H103.823M533.446 130.947H573.253M593.157 130.947H613.06" stroke="#CDCDCD" stroke-width="3"/>
<g clip-path="url(#clip0_160_16)">
<path d="M958.858 237.722C958.3 237.722 957.843 238.297 957.843 239.004V240.122H966.849V239.004C966.849 238.297 966.405 237.722 965.847 237.722H958.858ZM958.033 240.998V249.566H947.835L947.771 252.271H966.024C966.633 252.271 966.622 251.857 966.76 251.547V240.998H958.033ZM947.962 253.095C948.791 255.579 950.309 257.472 952.312 258.948C952.445 260.374 951.066 261.588 950.105 262.858H964.832C963.01 260.783 962.148 258.613 962.003 256.371C962.837 255.279 963.351 254.187 963.513 253.095H947.962Z" fill="#808080"/>
</g>
<path d="M914.233 254H907.988V259H901.743V264H895.498V269H897.996V266.5H904.241V261.5H910.486V256.5H916.731V251.5H922.976V249H914.233V254Z" fill="#808080"/>
<path d="M917.48 239L896.247 256.5H893V259H895.498V262.75H897.996V258.375L916.731 242.875V247.75H919.229V241.5H922.976V239H917.48Z" fill="#808080"/>
<path d="M424.743 78H430.988V83H437.233V88H443.478V93H440.98V90.5H434.735V85.5H428.49V80.5H422.245V75.5H416V73H424.743V78Z" fill="#808080"/>
<path d="M421.496 63L442.728 80.5H445.976V83H443.478V86.75H440.98V82.375L422.245 66.875V71.75H419.747V65.5H416V63H421.496Z" fill="#808080"/>
<path d="M638.5 195.5V200.5H663.5V195.5C663.5 192.742 665.742 190.5 668.5 190.5H671C671 186.359 667.641 183 663.5 183H638.5C634.359 183 631 186.359 631 190.5H633.5C636.258 190.5 638.5 192.742 638.5 195.5ZM671 193H668.5C667.117 193 666 194.117 666 195.5V203H636V195.5C636 194.117 634.883 193 633.5 193H631C628.242 193 626 195.242 626 198C626 199.844 627.016 201.438 628.5 202.305V211.75C628.5 212.438 629.062 213 629.75 213H634.75C635.438 213 636 212.438 636 211.75V210.5H666V211.75C666 212.438 666.562 213 667.25 213H672.25C672.938 213 673.5 212.438 673.5 211.75V202.305C674.984 201.438 676 199.844 676 198C676 195.242 673.758 193 671 193Z" fill="#808080"/>
<path d="M573.5 195.5V200.5H598.5V195.5C598.5 192.742 600.742 190.5 603.5 190.5H606C606 186.359 602.641 183 598.5 183H573.5C569.359 183 566 186.359 566 190.5H568.5C571.258 190.5 573.5 192.742 573.5 195.5ZM606 193H603.5C602.117 193 601 194.117 601 195.5V203H571V195.5C571 194.117 569.883 193 568.5 193H566C563.242 193 561 195.242 561 198C561 199.844 562.016 201.438 563.5 202.305V211.75C563.5 212.438 564.062 213 564.75 213H569.75C570.438 213 571 212.438 571 211.75V210.5H601V211.75C601 212.438 601.562 213 602.25 213H607.25C607.938 213 608.5 212.438 608.5 211.75V202.305C609.984 201.438 611 199.844 611 198C611 195.242 608.758 193 606 193Z" fill="#808080"/>
<path d="M508.5 195.5V200.5H533.5V195.5C533.5 192.742 535.742 190.5 538.5 190.5H541C541 186.359 537.641 183 533.5 183H508.5C504.359 183 501 186.359 501 190.5H503.5C506.258 190.5 508.5 192.742 508.5 195.5ZM541 193H538.5C537.117 193 536 194.117 536 195.5V203H506V195.5C506 194.117 504.883 193 503.5 193H501C498.242 193 496 195.242 496 198C496 199.844 497.016 201.438 498.5 202.305V211.75C498.5 212.438 499.062 213 499.75 213H504.75C505.438 213 506 212.438 506 211.75V210.5H536V211.75C536 212.438 536.562 213 537.25 213H542.25C542.938 213 543.5 212.438 543.5 211.75V202.305C544.984 201.438 546 199.844 546 198C546 195.242 543.758 193 541 193Z" fill="#808080"/>
<path d="M563.83 20.8675H568.406V21.7112C568.67 22.001 569.043 22.2737 569.525 22.5294C570.011 22.7893 570.658 23.0088 571.468 23.1878C572.282 23.371 573.315 23.4925 574.568 23.5521L580.091 23.8334V31.6061H568.406V33.1146H563.855V31.6061H567V22.376H563.83V20.8675ZM568.406 23.6032V30.0976H578.685V25.2652L574.568 25.0606C573.614 25.0095 572.749 24.92 571.973 24.7922C571.202 24.6643 570.518 24.5003 569.921 24.3C569.329 24.0997 568.824 23.8675 568.406 23.6032ZM569.224 36.814L576.818 41.5441V43.2828H567V41.7742H574.594L567 37.0697V35.3055H576.818V36.814H569.224ZM563.318 46.0457H576.818V47.5031H575.259V47.6821C575.429 47.7929 575.646 47.9463 575.911 48.1423C576.179 48.3426 576.418 48.6281 576.626 48.9988C576.839 49.3738 576.946 49.8809 576.946 50.5202C576.946 51.3469 576.739 52.0756 576.326 52.7062C575.913 53.3369 575.327 53.8291 574.568 54.1828C573.81 54.5365 572.915 54.7133 571.884 54.7133C570.844 54.7133 569.942 54.5365 569.18 54.1828C568.421 53.8291 567.833 53.339 567.415 52.7126C567.002 52.0862 566.795 51.3639 566.795 50.5457C566.795 49.915 566.9 49.4101 567.109 49.0308C567.322 48.6515 567.563 48.3596 567.831 48.1551C568.104 47.9506 568.33 47.7929 568.509 47.6821V47.5542H563.318V46.0457ZM571.909 47.5287C571.168 47.5287 570.513 47.6373 569.947 47.8547C569.384 48.072 568.943 48.3895 568.624 48.8071C568.308 49.2247 568.151 49.7361 568.151 50.3412C568.151 50.9719 568.317 51.4981 568.649 51.92C568.986 52.3461 569.438 52.6657 570.004 52.8788C570.575 53.0961 571.21 53.2048 571.909 53.2048C572.599 53.2048 573.222 53.0983 573.776 52.8852C574.334 52.6764 574.775 52.3589 575.099 51.9328C575.427 51.5109 575.591 50.9804 575.591 50.3412C575.591 49.7275 575.435 49.2119 575.124 48.7943C574.817 48.3767 574.387 48.0613 573.833 47.8483C573.283 47.6352 572.642 47.5287 571.909 47.5287ZM566.795 61.1309C566.795 60.1849 567.004 59.3689 567.422 58.6828C567.844 58.001 568.432 57.4747 569.186 57.104C569.945 56.7375 570.827 56.5542 571.832 56.5542C572.838 56.5542 573.724 56.7375 574.491 57.104C575.263 57.4747 575.864 57.9903 576.294 58.6508C576.729 59.3156 576.946 60.0912 576.946 60.9775C576.946 61.4889 576.861 61.9939 576.69 62.4925C576.52 62.991 576.243 63.4449 575.859 63.854C575.48 64.2631 574.977 64.589 574.351 64.8319C573.724 65.0748 572.953 65.1963 572.037 65.1963H571.398V57.6281H572.702V63.6622C573.256 63.6622 573.75 63.5514 574.185 63.3298C574.619 63.1125 574.962 62.8014 575.214 62.3966C575.465 61.996 575.591 61.523 575.591 60.9775C575.591 60.3767 575.442 59.8568 575.143 59.4179C574.849 58.9832 574.466 58.6487 573.993 58.4143C573.52 58.18 573.013 58.0628 572.472 58.0628H571.602C570.861 58.0628 570.232 58.1906 569.717 58.4463C569.205 58.7062 568.815 59.0663 568.547 59.5265C568.283 59.9868 568.151 60.5216 568.151 61.1309C568.151 61.5273 568.206 61.8852 568.317 62.2048C568.432 62.5287 568.602 62.8078 568.828 63.0422C569.058 63.2765 569.344 63.4577 569.685 63.5855L569.276 65.0429C568.781 64.8895 568.347 64.6317 567.972 64.2694C567.601 63.9072 567.311 63.4598 567.102 62.9271C566.898 62.3944 566.795 61.7957 566.795 61.1309ZM567 67.491H576.818V68.9996H572.548V69.9967L576.818 73.5251V75.4683L572.088 71.5052L567 75.5194V73.5763L571.142 70.3547V68.9996H567V67.491ZM575.412 76.5965H576.818V84.5738H575.412V81.3522H567V79.8437H575.412V76.5965ZM566.795 90.2531C566.795 89.3667 567.006 88.589 567.428 87.92C567.85 87.2552 568.44 86.7354 569.199 86.3604C569.957 85.9896 570.844 85.8042 571.858 85.8042C572.881 85.8042 573.773 85.9896 574.536 86.3604C575.299 86.7354 575.891 87.2552 576.313 87.92C576.735 88.589 576.946 89.3667 576.946 90.2531C576.946 91.1395 576.735 91.915 576.313 92.5798C575.891 93.2488 575.299 93.7687 574.536 94.1395C573.773 94.5145 572.881 94.702 571.858 94.702C570.844 94.702 569.957 94.5145 569.199 94.1395C568.44 93.7687 567.85 93.2488 567.428 92.5798C567.006 91.915 566.795 91.1395 566.795 90.2531ZM568.151 90.2531C568.151 90.9264 568.323 91.4804 568.668 91.915C569.013 92.3497 569.467 92.6714 570.03 92.8802C570.592 93.089 571.202 93.1934 571.858 93.1934C572.514 93.1934 573.126 93.089 573.692 92.8802C574.259 92.6714 574.717 92.3497 575.067 91.915C575.416 91.4804 575.591 90.9264 575.591 90.2531C575.591 89.5798 575.416 89.0258 575.067 88.5912C574.717 88.1565 574.259 87.8348 573.692 87.626C573.126 87.4172 572.514 87.3128 571.858 87.3128C571.202 87.3128 570.592 87.4172 570.03 87.626C569.467 87.8348 569.013 88.1565 568.668 88.5912C568.323 89.0258 568.151 89.5798 568.151 90.2531ZM563.318 97.0047H576.818V98.4621H575.259V98.6411C575.429 98.7519 575.646 98.9053 575.911 99.1013C576.179 99.3016 576.418 99.5871 576.626 99.9578C576.839 100.333 576.946 100.84 576.946 101.479C576.946 102.306 576.739 103.035 576.326 103.665C575.913 104.296 575.327 104.788 574.568 105.142C573.81 105.495 572.915 105.672 571.884 105.672C570.844 105.672 569.942 105.495 569.18 105.142C568.421 104.788 567.833 104.298 567.415 103.672C567.002 103.045 566.795 102.323 566.795 101.505C566.795 100.874 566.9 100.369 567.109 99.9898C567.322 99.6105 567.563 99.3186 567.831 99.1141C568.104 98.9095 568.33 98.7519 568.509 98.6411V98.5132H563.318V97.0047ZM571.909 98.4877C571.168 98.4877 570.513 98.5963 569.947 98.8137C569.384 99.031 568.943 99.3485 568.624 99.7661C568.308 100.184 568.151 100.695 568.151 101.3C568.151 101.931 568.317 102.457 568.649 102.879C568.986 103.305 569.438 103.625 570.004 103.838C570.575 104.055 571.21 104.164 571.909 104.164C572.599 104.164 573.222 104.057 573.776 103.844C574.334 103.635 574.775 103.318 575.099 102.892C575.427 102.47 575.591 101.939 575.591 101.3C575.591 100.687 575.435 100.171 575.124 99.7533C574.817 99.3357 574.387 99.0203 573.833 98.8073C573.283 98.5942 572.642 98.4877 571.909 98.4877Z" fill="#808080"/>
<path d="M736.821 192.084C736.821 191.24 736.966 190.488 737.256 189.828C737.545 189.171 737.948 188.649 738.464 188.262C738.984 187.878 739.587 187.669 740.273 187.635V189.246C739.851 189.28 739.487 189.425 739.18 189.681C738.877 189.936 738.643 190.271 738.477 190.684C738.31 191.098 738.227 191.556 738.227 192.059C738.227 192.621 738.325 193.12 738.521 193.554C738.717 193.989 738.99 194.33 739.339 194.577C739.689 194.824 740.094 194.948 740.554 194.948C741.036 194.948 741.46 194.828 741.826 194.59C742.197 194.351 742.487 194.002 742.695 193.541C742.904 193.081 743.009 192.519 743.009 191.854V190.806H744.415V191.854C744.415 192.374 744.509 192.83 744.696 193.222C744.884 193.618 745.148 193.927 745.489 194.149C745.83 194.375 746.23 194.487 746.69 194.487C747.134 194.487 747.519 194.389 747.847 194.193C748.175 193.997 748.431 193.72 748.614 193.362C748.798 193.009 748.889 192.591 748.889 192.11C748.889 191.658 748.806 191.232 748.64 190.831C748.478 190.435 748.241 190.111 747.93 189.86C747.624 189.608 747.253 189.472 746.818 189.451V187.916C747.504 187.942 748.105 188.149 748.621 188.536C749.141 188.924 749.545 189.431 749.835 190.058C750.125 190.688 750.27 191.381 750.27 192.135C750.27 192.945 750.106 193.639 749.778 194.219C749.454 194.799 749.026 195.244 748.493 195.555C747.96 195.866 747.385 196.022 746.767 196.022C746.03 196.022 745.401 195.828 744.881 195.44C744.362 195.056 744.001 194.534 743.801 193.874H743.699C743.563 194.701 743.211 195.346 742.644 195.811C742.082 196.275 741.385 196.507 740.554 196.507C739.842 196.507 739.203 196.313 738.636 195.926C738.074 195.542 737.631 195.018 737.307 194.353C736.983 193.688 736.821 192.932 736.821 192.084ZM736.77 202.036C736.77 201.414 736.887 200.85 737.121 200.343C737.36 199.835 737.703 199.433 738.151 199.134C738.602 198.836 739.148 198.687 739.787 198.687C740.349 198.687 740.805 198.798 741.155 199.019C741.509 199.241 741.786 199.537 741.986 199.908C742.186 200.279 742.335 200.688 742.433 201.135C742.536 201.587 742.616 202.041 742.676 202.497C742.753 203.093 742.81 203.577 742.849 203.948C742.891 204.323 742.962 204.595 743.06 204.766C743.158 204.941 743.328 205.028 743.571 205.028H743.622C744.253 205.028 744.743 204.855 745.092 204.51C745.442 204.169 745.616 203.652 745.616 202.957C745.616 202.237 745.459 201.672 745.143 201.263C744.828 200.854 744.491 200.566 744.134 200.4L744.645 198.968C745.241 199.224 745.706 199.565 746.038 199.991C746.375 200.421 746.609 200.89 746.741 201.397C746.878 201.909 746.946 202.411 746.946 202.906C746.946 203.221 746.908 203.583 746.831 203.992C746.759 204.406 746.607 204.804 746.377 205.188C746.147 205.576 745.8 205.897 745.335 206.153C744.871 206.409 744.249 206.536 743.469 206.536H737V205.028H738.33V204.951C738.116 204.849 737.888 204.679 737.646 204.44C737.403 204.201 737.196 203.884 737.026 203.487C736.855 203.091 736.77 202.608 736.77 202.036ZM738.125 202.267C738.125 202.863 738.242 203.366 738.477 203.775C738.711 204.188 739.013 204.5 739.384 204.708C739.755 204.921 740.145 205.028 740.554 205.028H741.935C741.858 204.964 741.788 204.823 741.724 204.606C741.664 204.393 741.611 204.146 741.564 203.865C741.521 203.588 741.483 203.317 741.449 203.053C741.419 202.793 741.393 202.582 741.372 202.42C741.321 202.028 741.238 201.661 741.123 201.321C741.012 200.984 740.844 200.711 740.618 200.502C740.396 200.298 740.094 200.196 739.71 200.196C739.186 200.196 738.79 200.389 738.521 200.777C738.257 201.169 738.125 201.666 738.125 202.267ZM739.045 214.659L746.818 218.085V219.517L737 215.273V214.046L746.818 209.878V211.284L739.045 214.659ZM746.818 210.798H737V209.29H746.818V210.798ZM737 218.52H746.818V220.028H737V218.52ZM736.898 223.889C736.898 223.574 737.011 223.303 737.237 223.078C737.462 222.852 737.733 222.739 738.048 222.739C738.364 222.739 738.634 222.852 738.86 223.078C739.086 223.303 739.199 223.574 739.199 223.889C739.199 224.205 739.086 224.475 738.86 224.701C738.634 224.927 738.364 225.04 738.048 225.04C737.839 225.04 737.648 224.987 737.473 224.88C737.298 224.778 737.158 224.639 737.051 224.465C736.949 224.294 736.898 224.102 736.898 223.889ZM733.83 226.826H738.406V227.67C738.67 227.96 739.043 228.233 739.525 228.488C740.011 228.748 740.658 228.968 741.468 229.147C742.282 229.33 743.315 229.451 744.568 229.511L750.091 229.792V237.565H738.406V239.074H733.855V237.565H737V228.335H733.83V226.826ZM738.406 229.562V236.057H748.685V231.224L744.568 231.02C743.614 230.968 742.749 230.879 741.973 230.751C741.202 230.623 740.518 230.459 739.921 230.259C739.329 230.059 738.824 229.826 738.406 229.562ZM739.224 242.773L746.818 247.503V249.242H737V247.733H744.594L737 243.029V241.264H746.818V242.773H739.224ZM733.318 252.005H746.818V253.462H745.259V253.641C745.429 253.752 745.646 253.905 745.911 254.101C746.179 254.302 746.418 254.587 746.626 254.958C746.839 255.333 746.946 255.84 746.946 256.479C746.946 257.306 746.739 258.035 746.326 258.665C745.913 259.296 745.327 259.788 744.568 260.142C743.81 260.495 742.915 260.672 741.884 260.672C740.844 260.672 739.942 260.495 739.18 260.142C738.421 259.788 737.833 259.298 737.415 258.672C737.002 258.045 736.795 257.323 736.795 256.505C736.795 255.874 736.9 255.369 737.109 254.99C737.322 254.611 737.563 254.319 737.831 254.114C738.104 253.91 738.33 253.752 738.509 253.641V253.513H733.318V252.005ZM741.909 253.488C741.168 253.488 740.513 253.596 739.947 253.814C739.384 254.031 738.943 254.348 738.624 254.766C738.308 255.184 738.151 255.695 738.151 256.3C738.151 256.931 738.317 257.457 738.649 257.879C738.986 258.305 739.438 258.625 740.004 258.838C740.575 259.055 741.21 259.164 741.909 259.164C742.599 259.164 743.222 259.057 743.776 258.844C744.334 258.635 744.775 258.318 745.099 257.892C745.427 257.47 745.591 256.939 745.591 256.3C745.591 255.687 745.435 255.171 745.124 254.753C744.817 254.336 744.387 254.02 743.833 253.807C743.283 253.594 742.642 253.488 741.909 253.488ZM736.795 267.09C736.795 266.144 737.004 265.328 737.422 264.642C737.844 263.96 738.432 263.434 739.186 263.063C739.945 262.696 740.827 262.513 741.832 262.513C742.838 262.513 743.724 262.696 744.491 263.063C745.263 263.434 745.864 263.949 746.294 264.61C746.729 265.275 746.946 266.05 746.946 266.937C746.946 267.448 746.861 267.953 746.69 268.451C746.52 268.95 746.243 269.404 745.859 269.813C745.48 270.222 744.977 270.548 744.351 270.791C743.724 271.034 742.953 271.155 742.037 271.155H741.398V263.587H742.702V269.621C743.256 269.621 743.75 269.51 744.185 269.289C744.619 269.071 744.962 268.76 745.214 268.356C745.465 267.955 745.591 267.482 745.591 266.937C745.591 266.336 745.442 265.816 745.143 265.377C744.849 264.942 744.466 264.608 743.993 264.373C743.52 264.139 743.013 264.022 742.472 264.022H741.602C740.861 264.022 740.232 264.15 739.717 264.405C739.205 264.665 738.815 265.025 738.547 265.486C738.283 265.946 738.151 266.481 738.151 267.09C738.151 267.486 738.206 267.844 738.317 268.164C738.432 268.488 738.602 268.767 738.828 269.001C739.058 269.236 739.344 269.417 739.685 269.544L739.276 271.002C738.781 270.848 738.347 270.591 737.972 270.228C737.601 269.866 737.311 269.419 737.102 268.886C736.898 268.353 736.795 267.755 736.795 267.09ZM737 273.45H746.818V274.959H742.548V275.956L746.818 279.484V281.427L742.088 277.464L737 281.478V279.535L741.142 276.314V274.959H737V273.45ZM745.412 282.555H746.818V290.533H745.412V287.311H737V285.803H745.412V282.555ZM736.795 296.212C736.795 295.326 737.006 294.548 737.428 293.879C737.85 293.214 738.44 292.694 739.199 292.319C739.957 291.949 740.844 291.763 741.858 291.763C742.881 291.763 743.773 291.949 744.536 292.319C745.299 292.694 745.891 293.214 746.313 293.879C746.735 294.548 746.946 295.326 746.946 296.212C746.946 297.098 746.735 297.874 746.313 298.539C745.891 299.208 745.299 299.728 744.536 300.098C743.773 300.473 742.881 300.661 741.858 300.661C740.844 300.661 739.957 300.473 739.199 300.098C738.44 299.728 737.85 299.208 737.428 298.539C737.006 297.874 736.795 297.098 736.795 296.212ZM738.151 296.212C738.151 296.885 738.323 297.439 738.668 297.874C739.013 298.309 739.467 298.63 740.03 298.839C740.592 299.048 741.202 299.152 741.858 299.152C742.514 299.152 743.126 299.048 743.692 298.839C744.259 298.63 744.717 298.309 745.067 297.874C745.416 297.439 745.591 296.885 745.591 296.212C745.591 295.539 745.416 294.985 745.067 294.55C744.717 294.116 744.259 293.794 743.692 293.585C743.126 293.376 742.514 293.272 741.858 293.272C741.202 293.272 740.592 293.376 740.03 293.585C739.467 293.794 739.013 294.116 738.668 294.55C738.323 294.985 738.151 295.539 738.151 296.212ZM733.318 302.964H746.818V304.421H745.259V304.6C745.429 304.711 745.646 304.864 745.911 305.06C746.179 305.261 746.418 305.546 746.626 305.917C746.839 306.292 746.946 306.799 746.946 307.438C746.946 308.265 746.739 308.994 746.326 309.624C745.913 310.255 745.327 310.747 744.568 311.101C743.81 311.454 742.915 311.631 741.884 311.631C740.844 311.631 739.942 311.454 739.18 311.101C738.421 310.747 737.833 310.257 737.415 309.631C737.002 309.004 736.795 308.282 736.795 307.464C736.795 306.833 736.9 306.328 737.109 305.949C737.322 305.57 737.563 305.278 737.831 305.073C738.104 304.869 738.33 304.711 738.509 304.6V304.472H733.318V302.964ZM741.909 304.447C741.168 304.447 740.513 304.555 739.947 304.773C739.384 304.99 738.943 305.307 738.624 305.725C738.308 306.143 738.151 306.654 738.151 307.259C738.151 307.89 738.317 308.416 738.649 308.838C738.986 309.264 739.438 309.584 740.004 309.797C740.575 310.014 741.21 310.123 741.909 310.123C742.599 310.123 743.222 310.016 743.776 309.803C744.334 309.594 744.775 309.277 745.099 308.851C745.427 308.429 745.591 307.898 745.591 307.259C745.591 306.646 745.435 306.13 745.124 305.712C744.817 305.295 744.387 304.979 743.833 304.766C743.283 304.553 742.642 304.447 741.909 304.447ZM736.77 316.822C736.77 316.199 736.887 315.635 737.121 315.128C737.36 314.621 737.703 314.218 738.151 313.92C738.602 313.621 739.148 313.472 739.787 313.472C740.349 313.472 740.805 313.583 741.155 313.805C741.509 314.026 741.786 314.322 741.986 314.693C742.186 315.064 742.335 315.473 742.433 315.92C742.536 316.372 742.616 316.826 742.676 317.282C742.753 317.878 742.81 318.362 742.849 318.733C742.891 319.108 742.962 319.381 743.06 319.551C743.158 319.726 743.328 319.813 743.571 319.813H743.622C744.253 319.813 744.743 319.641 745.092 319.295C745.442 318.954 745.616 318.437 745.616 317.742C745.616 317.022 745.459 316.457 745.143 316.048C744.828 315.639 744.491 315.351 744.134 315.185L744.645 313.753C745.241 314.009 745.706 314.35 746.038 314.776C746.375 315.207 746.609 315.675 746.741 316.182C746.878 316.694 746.946 317.197 746.946 317.691C746.946 318.006 746.908 318.369 746.831 318.778C746.759 319.191 746.607 319.589 746.377 319.973C746.147 320.361 745.8 320.682 745.335 320.938C744.871 321.194 744.249 321.322 743.469 321.322H737V319.813H738.33V319.736C738.116 319.634 737.888 319.464 737.646 319.225C737.403 318.986 737.196 318.669 737.026 318.273C736.855 317.876 736.77 317.393 736.77 316.822ZM738.125 317.052C738.125 317.648 738.242 318.151 738.477 318.56C738.711 318.974 739.013 319.285 739.384 319.494C739.755 319.707 740.145 319.813 740.554 319.813H741.935C741.858 319.749 741.788 319.609 741.724 319.391C741.664 319.178 741.611 318.931 741.564 318.65C741.521 318.373 741.483 318.102 741.449 317.838C741.419 317.578 741.393 317.367 741.372 317.205C741.321 316.813 741.238 316.447 741.123 316.106C741.012 315.769 740.844 315.496 740.618 315.288C740.396 315.083 740.094 314.981 739.71 314.981C739.186 314.981 738.79 315.175 738.521 315.562C738.257 315.954 738.125 316.451 738.125 317.052Z" fill="#808080"/>
<path d="M430 205.074H443.091V212.975H441.685V206.66H437.594V209.984C437.594 210.921 437.44 211.712 437.134 212.355C436.827 213.003 436.394 213.493 435.836 213.825C435.278 214.162 434.619 214.33 433.861 214.33C433.102 214.33 432.433 214.162 431.854 213.825C431.274 213.493 430.82 213.003 430.492 212.355C430.164 211.712 430 210.921 430 209.984V205.074ZM431.381 206.66V209.984C431.381 210.58 431.5 211.085 431.739 211.498C431.982 211.916 432.293 212.231 432.672 212.445C433.055 212.662 433.46 212.771 433.886 212.771C434.513 212.771 435.052 212.53 435.504 212.048C435.96 211.567 436.188 210.878 436.188 209.984V206.66H431.381ZM426.318 217.707C426.318 217.451 426.339 217.223 426.382 217.023C426.42 216.823 426.459 216.684 426.497 216.607L427.827 216.991C427.733 217.357 427.699 217.681 427.724 217.962C427.75 218.244 427.876 218.493 428.102 218.71C428.323 218.932 428.683 219.134 429.182 219.318L429.949 219.599L439.818 215.968V217.604L431.994 220.315V220.417L439.818 223.127V224.764L428.568 220.596C428.061 220.408 427.641 220.176 427.309 219.899C426.972 219.622 426.723 219.301 426.561 218.934C426.399 218.572 426.318 218.163 426.318 217.707ZM439.818 232.814H438.412V228.263H430V226.755H439.818V232.814ZM429.77 237.396C429.77 236.774 429.887 236.209 430.121 235.702C430.36 235.195 430.703 234.792 431.151 234.494C431.602 234.196 432.148 234.046 432.787 234.046C433.349 234.046 433.805 234.157 434.155 234.379C434.509 234.6 434.786 234.897 434.986 235.267C435.186 235.638 435.335 236.047 435.433 236.495C435.536 236.946 435.616 237.4 435.676 237.856C435.753 238.453 435.81 238.936 435.849 239.307C435.891 239.682 435.962 239.955 436.06 240.125C436.158 240.3 436.328 240.387 436.571 240.387H436.622C437.253 240.387 437.743 240.215 438.092 239.87C438.442 239.529 438.616 239.011 438.616 238.316C438.616 237.596 438.459 237.032 438.143 236.622C437.828 236.213 437.491 235.926 437.134 235.759L437.645 234.328C438.241 234.583 438.706 234.924 439.038 235.35C439.375 235.781 439.609 236.25 439.741 236.757C439.878 237.268 439.946 237.771 439.946 238.265C439.946 238.581 439.908 238.943 439.831 239.352C439.759 239.765 439.607 240.164 439.377 240.547C439.147 240.935 438.8 241.257 438.335 241.512C437.871 241.768 437.249 241.896 436.469 241.896H430V240.387H431.33V240.311C431.116 240.208 430.888 240.038 430.646 239.799C430.403 239.561 430.196 239.243 430.026 238.847C429.855 238.451 429.77 237.967 429.77 237.396ZM431.125 237.626C431.125 238.223 431.242 238.725 431.477 239.134C431.711 239.548 432.013 239.859 432.384 240.068C432.755 240.281 433.145 240.387 433.554 240.387H434.935C434.858 240.323 434.788 240.183 434.724 239.965C434.664 239.752 434.611 239.505 434.564 239.224C434.521 238.947 434.483 238.676 434.449 238.412C434.419 238.152 434.393 237.941 434.372 237.779C434.321 237.387 434.238 237.021 434.123 236.68C434.012 236.343 433.844 236.071 433.618 235.862C433.396 235.657 433.094 235.555 432.71 235.555C432.186 235.555 431.79 235.749 431.521 236.137C431.257 236.529 431.125 237.025 431.125 237.626ZM430 243.78H431.406V244.138C431.406 244.432 431.464 244.677 431.579 244.873C431.698 245.069 431.905 245.227 432.199 245.346C432.497 245.47 432.911 245.563 433.439 245.627C433.972 245.695 434.649 245.744 435.472 245.774L439.818 245.953V252.499H430V250.99H438.412V247.385L434.909 247.232C434.104 247.198 433.394 247.125 432.781 247.014C432.171 246.908 431.66 246.744 431.246 246.522C430.833 246.305 430.522 246.015 430.313 245.653C430.104 245.291 430 244.837 430 244.291V243.78ZM438.412 253.93H439.818V261.908H438.412V258.686H430V257.178H438.412V253.93ZM429.795 267.715C429.795 266.769 430.004 265.953 430.422 265.267C430.844 264.585 431.432 264.059 432.186 263.688C432.945 263.321 433.827 263.138 434.832 263.138C435.838 263.138 436.724 263.321 437.491 263.688C438.263 264.059 438.864 264.574 439.294 265.235C439.729 265.9 439.946 266.675 439.946 267.562C439.946 268.073 439.861 268.578 439.69 269.076C439.52 269.575 439.243 270.029 438.859 270.438C438.48 270.847 437.977 271.173 437.351 271.416C436.724 271.659 435.953 271.78 435.037 271.78H434.398V264.212H435.702V270.246C436.256 270.246 436.75 270.135 437.185 269.914C437.619 269.696 437.962 269.385 438.214 268.981C438.465 268.58 438.591 268.107 438.591 267.562C438.591 266.961 438.442 266.441 438.143 266.002C437.849 265.567 437.466 265.233 436.993 264.998C436.52 264.764 436.013 264.647 435.472 264.647H434.602C433.861 264.647 433.232 264.775 432.717 265.03C432.205 265.29 431.815 265.65 431.547 266.111C431.283 266.571 431.151 267.106 431.151 267.715C431.151 268.111 431.206 268.469 431.317 268.789C431.432 269.113 431.602 269.392 431.828 269.626C432.058 269.861 432.344 270.042 432.685 270.169L432.276 271.627C431.781 271.473 431.347 271.216 430.972 270.853C430.601 270.491 430.311 270.044 430.102 269.511C429.898 268.978 429.795 268.38 429.795 267.715ZM426.318 274.075H439.818V275.532H438.259V275.711C438.429 275.822 438.646 275.976 438.911 276.172C439.179 276.372 439.418 276.657 439.626 277.028C439.839 277.403 439.946 277.91 439.946 278.549C439.946 279.376 439.739 280.105 439.326 280.736C438.913 281.366 438.327 281.858 437.568 282.212C436.81 282.566 435.915 282.743 434.884 282.743C433.844 282.743 432.942 282.566 432.18 282.212C431.421 281.858 430.833 281.368 430.415 280.742C430.002 280.116 429.795 279.393 429.795 278.575C429.795 277.944 429.9 277.439 430.109 277.06C430.322 276.681 430.563 276.389 430.831 276.184C431.104 275.98 431.33 275.822 431.509 275.711V275.584H426.318V274.075ZM434.909 275.558C434.168 275.558 433.513 275.667 432.947 275.884C432.384 276.101 431.943 276.419 431.624 276.836C431.308 277.254 431.151 277.765 431.151 278.37C431.151 279.001 431.317 279.527 431.649 279.949C431.986 280.375 432.438 280.695 433.004 280.908C433.575 281.125 434.21 281.234 434.909 281.234C435.599 281.234 436.222 281.128 436.776 280.915C437.334 280.706 437.775 280.388 438.099 279.962C438.427 279.54 438.591 279.01 438.591 278.37C438.591 277.757 438.435 277.241 438.124 276.824C437.817 276.406 437.387 276.091 436.833 275.878C436.283 275.665 435.642 275.558 434.909 275.558ZM432.224 286.552L439.818 291.282V293.021H430V291.513H437.594L430 286.808V285.044H439.818V286.552H432.224ZM430 301.69H438.438V299.082C438.438 298.494 438.301 298.032 438.028 297.695C437.756 297.359 437.381 297.19 436.903 297.19C436.435 297.19 436.066 297.342 435.798 297.644C435.529 297.951 435.395 298.371 435.395 298.903V302.074H433.989V298.903C433.989 298.239 434.106 297.665 434.34 297.184C434.575 296.702 434.909 296.332 435.344 296.072C435.783 295.812 436.303 295.682 436.903 295.682C437.509 295.682 438.028 295.818 438.463 296.091C438.898 296.364 439.232 296.753 439.467 297.261C439.701 297.772 439.818 298.379 439.818 299.082V303.122H430V301.69ZM430 295.145L434.884 297.932V299.568L430 296.781V295.145Z" fill="#808080"/>
<path d="M1028.61 263V261.849L1032.93 257.119C1033.43 256.565 1033.85 256.084 1034.18 255.675C1034.51 255.261 1034.75 254.874 1034.91 254.511C1035.07 254.145 1035.15 253.761 1035.15 253.361C1035.15 252.901 1035.04 252.502 1034.82 252.165C1034.6 251.829 1034.3 251.569 1033.92 251.386C1033.55 251.202 1033.12 251.111 1032.65 251.111C1032.14 251.111 1031.7 251.215 1031.33 251.424C1030.96 251.629 1030.67 251.916 1030.47 252.287C1030.27 252.658 1030.17 253.092 1030.17 253.591H1028.66C1028.66 252.824 1028.83 252.151 1029.19 251.571C1029.54 250.991 1030.02 250.54 1030.63 250.216C1031.25 249.892 1031.93 249.73 1032.7 249.73C1033.46 249.73 1034.14 249.892 1034.74 250.216C1035.33 250.54 1035.79 250.977 1036.13 251.526C1036.47 252.076 1036.63 252.688 1036.63 253.361C1036.63 253.842 1036.55 254.313 1036.37 254.773C1036.2 255.229 1035.9 255.739 1035.48 256.301C1035.06 256.859 1034.47 257.541 1033.72 258.347L1030.78 261.491V261.594H1036.86V263H1028.61ZM1044.11 249.909V263H1042.52V251.571H1042.44L1039.25 253.693V252.082L1042.52 249.909H1044.11ZM1052.22 263.179C1051.68 263.17 1051.14 263.068 1050.61 262.872C1050.07 262.676 1049.58 262.346 1049.14 261.881C1048.69 261.413 1048.34 260.78 1048.07 259.983C1047.8 259.182 1047.67 258.176 1047.67 256.966C1047.67 255.807 1047.78 254.78 1047.99 253.885C1048.21 252.986 1048.53 252.229 1048.94 251.616C1049.35 250.998 1049.85 250.529 1050.43 250.21C1051.02 249.89 1051.69 249.73 1052.42 249.73C1053.16 249.73 1053.81 249.877 1054.38 250.171C1054.95 250.461 1055.42 250.866 1055.79 251.386C1056.15 251.906 1056.38 252.504 1056.49 253.182H1054.93C1054.78 252.594 1054.5 252.106 1054.08 251.718C1053.67 251.33 1053.11 251.136 1052.42 251.136C1051.41 251.136 1050.61 251.577 1050.03 252.46C1049.45 253.342 1049.15 254.58 1049.15 256.173H1049.25C1049.49 255.811 1049.77 255.502 1050.1 255.246C1050.43 254.987 1050.8 254.786 1051.2 254.646C1051.6 254.505 1052.03 254.435 1052.47 254.435C1053.22 254.435 1053.91 254.622 1054.53 254.997C1055.15 255.368 1055.65 255.881 1056.03 256.538C1056.4 257.19 1056.59 257.938 1056.59 258.781C1056.59 259.591 1056.41 260.332 1056.05 261.006C1055.68 261.675 1055.18 262.207 1054.52 262.604C1053.87 262.996 1053.1 263.188 1052.22 263.179ZM1052.22 261.773C1052.76 261.773 1053.24 261.638 1053.66 261.37C1054.09 261.102 1054.43 260.741 1054.68 260.29C1054.93 259.838 1055.06 259.335 1055.06 258.781C1055.06 258.24 1054.93 257.748 1054.69 257.305C1054.45 256.857 1054.12 256.501 1053.7 256.237C1053.28 255.973 1052.81 255.841 1052.27 255.841C1051.86 255.841 1051.49 255.922 1051.14 256.084C1050.79 256.241 1050.48 256.459 1050.22 256.736C1049.96 257.013 1049.75 257.33 1049.6 257.688C1049.45 258.042 1049.38 258.415 1049.38 258.807C1049.38 259.327 1049.5 259.812 1049.74 260.264C1049.99 260.716 1050.33 261.08 1050.75 261.357C1051.18 261.634 1051.67 261.773 1052.22 261.773Z" fill="#808080"/>
<path d="M1150.75 262V260.849L1155.07 256.119C1155.57 255.565 1155.99 255.084 1156.32 254.675C1156.65 254.261 1156.89 253.874 1157.05 253.511C1157.21 253.145 1157.29 252.761 1157.29 252.361C1157.29 251.901 1157.18 251.502 1156.96 251.165C1156.74 250.829 1156.44 250.569 1156.06 250.386C1155.69 250.202 1155.26 250.111 1154.79 250.111C1154.28 250.111 1153.84 250.215 1153.47 250.424C1153.1 250.629 1152.81 250.916 1152.61 251.287C1152.41 251.658 1152.31 252.092 1152.31 252.591H1150.8C1150.8 251.824 1150.97 251.151 1151.33 250.571C1151.68 249.991 1152.16 249.54 1152.77 249.216C1153.39 248.892 1154.07 248.73 1154.84 248.73C1155.6 248.73 1156.28 248.892 1156.88 249.216C1157.47 249.54 1157.93 249.977 1158.27 250.526C1158.61 251.076 1158.78 251.688 1158.78 252.361C1158.78 252.842 1158.69 253.313 1158.51 253.773C1158.34 254.229 1158.04 254.739 1157.62 255.301C1157.2 255.859 1156.61 256.541 1155.86 257.347L1152.92 260.491V260.594H1159.01V262H1150.75ZM1166.25 248.909V262H1164.66V250.571H1164.59L1161.39 252.693V251.082L1164.66 248.909H1166.25ZM1174.1 262.179C1173.35 262.179 1172.68 262.03 1172.08 261.732C1171.48 261.433 1170.99 261.024 1170.63 260.504C1170.27 259.984 1170.07 259.392 1170.04 258.727H1171.57C1171.63 259.32 1171.9 259.81 1172.38 260.197C1172.86 260.581 1173.43 260.773 1174.1 260.773C1174.64 260.773 1175.12 260.647 1175.54 260.396C1175.96 260.144 1176.29 259.799 1176.53 259.36C1176.77 258.917 1176.89 258.416 1176.89 257.858C1176.89 257.287 1176.76 256.778 1176.51 256.33C1176.27 255.879 1175.92 255.523 1175.49 255.263C1175.06 255.003 1174.56 254.871 1174 254.866C1173.6 254.862 1173.19 254.924 1172.77 255.052C1172.35 255.175 1172 255.335 1171.73 255.531L1170.24 255.352L1171.04 248.909H1177.84V250.315H1172.36L1171.9 254.176H1171.98C1172.25 253.963 1172.59 253.786 1172.99 253.646C1173.4 253.505 1173.82 253.435 1174.26 253.435C1175.06 253.435 1175.77 253.626 1176.4 254.01C1177.03 254.389 1177.52 254.909 1177.88 255.57C1178.24 256.23 1178.42 256.984 1178.42 257.832C1178.42 258.668 1178.24 259.413 1177.86 260.07C1177.49 260.722 1176.98 261.237 1176.33 261.616C1175.68 261.991 1174.93 262.179 1174.1 262.179Z" fill="#808080"/>
<path d="M1127.45 77V75.8494L1131.77 71.1193C1132.28 70.5653 1132.69 70.0838 1133.02 69.6747C1133.35 69.2614 1133.59 68.8736 1133.75 68.5114C1133.91 68.1449 1133.99 67.7614 1133.99 67.3608C1133.99 66.9006 1133.88 66.5021 1133.66 66.1655C1133.44 65.8288 1133.15 65.5689 1132.77 65.3857C1132.39 65.2024 1131.96 65.1108 1131.49 65.1108C1130.98 65.1108 1130.55 65.2152 1130.17 65.424C1129.8 65.6286 1129.51 65.9162 1129.31 66.2869C1129.11 66.6577 1129.01 67.0923 1129.01 67.5909H1127.5C1127.5 66.8239 1127.68 66.1506 1128.03 65.571C1128.38 64.9915 1128.86 64.5398 1129.47 64.2159C1130.09 63.892 1130.78 63.7301 1131.54 63.7301C1132.31 63.7301 1132.99 63.892 1133.58 64.2159C1134.17 64.5398 1134.63 64.9766 1134.97 65.5263C1135.31 66.076 1135.48 66.6875 1135.48 67.3608C1135.48 67.8423 1135.39 68.3132 1135.21 68.7734C1135.04 69.2294 1134.75 69.7386 1134.32 70.3011C1133.9 70.8594 1133.31 71.5412 1132.56 72.3466L1129.62 75.4915V75.5938H1135.71V77H1127.45ZM1142.95 63.9091V77H1141.36V65.571H1141.29L1138.09 67.6932V66.0824L1141.36 63.9091H1142.95ZM1146.41 74.3153V73.0114L1152.16 63.9091H1153.11V65.929H1152.47L1148.12 72.8068V72.9091H1155.87V74.3153H1146.41ZM1152.57 77V73.919V73.3118V63.9091H1154.08V77H1152.57Z" fill="#808080"/>
<path d="M255.411 264V262.849L259.732 258.119C260.239 257.565 260.657 257.084 260.985 256.675C261.313 256.261 261.556 255.874 261.713 255.511C261.875 255.145 261.956 254.761 261.956 254.361C261.956 253.901 261.845 253.502 261.624 253.165C261.407 252.829 261.108 252.569 260.729 252.386C260.35 252.202 259.924 252.111 259.451 252.111C258.948 252.111 258.509 252.215 258.134 252.424C257.763 252.629 257.475 252.916 257.271 253.287C257.071 253.658 256.97 254.092 256.97 254.591H255.462C255.462 253.824 255.639 253.151 255.992 252.571C256.346 251.991 256.828 251.54 257.437 251.216C258.051 250.892 258.739 250.73 259.502 250.73C260.269 250.73 260.948 250.892 261.541 251.216C262.133 251.54 262.598 251.977 262.934 252.526C263.271 253.076 263.439 253.688 263.439 254.361C263.439 254.842 263.352 255.313 263.177 255.773C263.007 256.229 262.708 256.739 262.282 257.301C261.86 257.859 261.274 258.541 260.524 259.347L257.584 262.491V262.594H263.669V264H255.411ZM266.309 264V262.849L270.63 258.119C271.137 257.565 271.555 257.084 271.883 256.675C272.211 256.261 272.454 255.874 272.612 255.511C272.774 255.145 272.855 254.761 272.855 254.361C272.855 253.901 272.744 253.502 272.522 253.165C272.305 252.829 272.007 252.569 271.627 252.386C271.248 252.202 270.822 252.111 270.349 252.111C269.846 252.111 269.407 252.215 269.032 252.424C268.661 252.629 268.374 252.916 268.169 253.287C267.969 253.658 267.869 254.092 267.869 254.591H266.36C266.36 253.824 266.537 253.151 266.891 252.571C267.245 251.991 267.726 251.54 268.335 251.216C268.949 250.892 269.637 250.73 270.4 250.73C271.167 250.73 271.847 250.892 272.439 251.216C273.032 251.54 273.496 251.977 273.833 252.526C274.169 253.076 274.338 253.688 274.338 254.361C274.338 254.842 274.25 255.313 274.076 255.773C273.905 256.229 273.607 256.739 273.181 257.301C272.759 257.859 272.173 258.541 271.423 259.347L268.483 262.491V262.594H274.568V264H266.309ZM281.401 264.179C280.523 264.179 279.747 264.023 279.074 263.712C278.405 263.397 277.883 262.964 277.508 262.415C277.133 261.861 276.948 261.23 276.952 260.523C276.948 259.969 277.056 259.457 277.278 258.989C277.5 258.516 277.802 258.121 278.186 257.806C278.573 257.487 279.006 257.284 279.483 257.199V257.122C278.857 256.96 278.358 256.609 277.987 256.067C277.617 255.522 277.434 254.902 277.438 254.207C277.434 253.543 277.602 252.948 277.943 252.424C278.284 251.9 278.752 251.487 279.349 251.184C279.95 250.881 280.634 250.73 281.401 250.73C282.159 250.73 282.837 250.881 283.434 251.184C284.03 251.487 284.499 251.9 284.84 252.424C285.185 252.948 285.36 253.543 285.364 254.207C285.36 254.902 285.17 255.522 284.795 256.067C284.424 256.609 283.932 256.96 283.318 257.122V257.199C283.791 257.284 284.218 257.487 284.597 257.806C284.976 258.121 285.279 258.516 285.505 258.989C285.73 259.457 285.845 259.969 285.85 260.523C285.845 261.23 285.654 261.861 285.274 262.415C284.899 262.964 284.377 263.397 283.708 263.712C283.044 264.023 282.274 264.179 281.401 264.179ZM281.401 262.773C281.993 262.773 282.505 262.677 282.935 262.485C283.365 262.293 283.698 262.023 283.932 261.673C284.166 261.324 284.286 260.915 284.29 260.446C284.286 259.952 284.158 259.515 283.907 259.136C283.655 258.756 283.312 258.458 282.877 258.241C282.447 258.023 281.955 257.915 281.401 257.915C280.843 257.915 280.344 258.023 279.905 258.241C279.47 258.458 279.127 258.756 278.876 259.136C278.629 259.515 278.507 259.952 278.512 260.446C278.507 260.915 278.62 261.324 278.85 261.673C279.085 262.023 279.419 262.293 279.854 262.485C280.289 262.677 280.804 262.773 281.401 262.773ZM281.401 256.56C281.87 256.56 282.285 256.466 282.647 256.278C283.014 256.091 283.301 255.829 283.51 255.492C283.719 255.156 283.826 254.761 283.83 254.31C283.826 253.866 283.721 253.481 283.517 253.153C283.312 252.82 283.029 252.565 282.666 252.386C282.304 252.202 281.882 252.111 281.401 252.111C280.911 252.111 280.483 252.202 280.116 252.386C279.75 252.565 279.466 252.82 279.266 253.153C279.066 253.481 278.968 253.866 278.972 254.31C278.968 254.761 279.068 255.156 279.272 255.492C279.481 255.829 279.769 256.091 280.135 256.278C280.502 256.466 280.924 256.56 281.401 256.56Z" fill="#808080"/>
<path d="M192.597 74V72.8494L196.918 68.1193C197.425 67.5653 197.843 67.0838 198.171 66.6747C198.499 66.2614 198.742 65.8736 198.9 65.5114C199.062 65.1449 199.143 64.7614 199.143 64.3608C199.143 63.9006 199.032 63.5021 198.81 63.1655C198.593 62.8288 198.295 62.5689 197.915 62.3857C197.536 62.2024 197.11 62.1108 196.637 62.1108C196.134 62.1108 195.695 62.2152 195.32 62.424C194.95 62.6286 194.662 62.9162 194.457 63.2869C194.257 63.6577 194.157 64.0923 194.157 64.5909H192.648C192.648 63.8239 192.825 63.1506 193.179 62.571C193.533 61.9915 194.014 61.5398 194.624 61.2159C195.237 60.892 195.925 60.7301 196.688 60.7301C197.455 60.7301 198.135 60.892 198.727 61.2159C199.32 61.5398 199.784 61.9766 200.121 62.5263C200.457 63.076 200.626 63.6875 200.626 64.3608C200.626 64.8423 200.538 65.3132 200.364 65.7734C200.193 66.2294 199.895 66.7386 199.469 67.3011C199.047 67.8594 198.461 68.5412 197.711 69.3466L194.771 72.4915V72.5938H200.856V74H192.597ZM207.766 74.179C206.803 74.179 205.982 73.9169 205.305 73.3928C204.627 72.8643 204.109 72.0994 203.751 71.098C203.393 70.0923 203.214 68.8778 203.214 67.4545C203.214 66.0398 203.393 64.8317 203.751 63.8303C204.114 62.8246 204.634 62.0575 205.311 61.5291C205.993 60.9964 206.811 60.7301 207.766 60.7301C208.72 60.7301 209.536 60.9964 210.214 61.5291C210.896 62.0575 211.415 62.8246 211.773 63.8303C212.136 64.8317 212.317 66.0398 212.317 67.4545C212.317 68.8778 212.138 70.0923 211.78 71.098C211.422 72.0994 210.904 72.8643 210.227 73.3928C209.549 73.9169 208.729 74.179 207.766 74.179ZM207.766 72.7727C208.72 72.7727 209.462 72.3125 209.99 71.392C210.518 70.4716 210.783 69.1591 210.783 67.4545C210.783 66.321 210.661 65.3558 210.418 64.5589C210.18 63.7621 209.835 63.1548 209.383 62.7372C208.935 62.3196 208.396 62.1108 207.766 62.1108C206.82 62.1108 206.08 62.5774 205.548 63.5107C205.015 64.4396 204.749 65.7543 204.749 67.4545C204.749 68.5881 204.868 69.5511 205.107 70.3438C205.345 71.1364 205.688 71.7393 206.136 72.1527C206.587 72.5661 207.131 72.7727 207.766 72.7727ZM219.348 60.9091V74H217.763V62.571H217.686L214.49 64.6932V63.0824L217.763 60.9091H219.348Z" fill="#808080"/>
<path d="M54.6559 80V78.8494L58.9769 74.1193C59.484 73.5653 59.9016 73.0838 60.2298 72.6747C60.5579 72.2614 60.8008 71.8736 60.9585 71.5114C61.1204 71.1449 61.2013 70.7614 61.2013 70.3608C61.2013 69.9006 61.0906 69.5021 60.869 69.1655C60.6516 68.8288 60.3533 68.5689 59.9741 68.3857C59.5948 68.2024 59.1687 68.1108 58.6957 68.1108C58.1928 68.1108 57.7539 68.2152 57.3789 68.424C57.0082 68.6286 56.7205 68.9162 56.516 69.2869C56.3157 69.6577 56.2156 70.0923 56.2156 70.5909H54.707C54.707 69.8239 54.8839 69.1506 55.2376 68.571C55.5913 67.9915 56.0728 67.5398 56.6822 67.2159C57.2958 66.892 57.984 66.7301 58.7468 66.7301C59.5138 66.7301 60.1935 66.892 60.7859 67.2159C61.3782 67.5398 61.8427 67.9766 62.1793 68.5263C62.516 69.076 62.6843 69.6875 62.6843 70.3608C62.6843 70.8423 62.5969 71.3132 62.4222 71.7734C62.2518 72.2294 61.9535 72.7386 61.5273 73.3011C61.1055 73.8594 60.5195 74.5412 59.7695 75.3466L56.8292 78.4915V78.5938H62.9144V80H54.6559ZM69.8242 80.179C68.8612 80.179 68.0408 79.9169 67.3633 79.3928C66.6857 78.8643 66.168 78.0994 65.81 77.098C65.4521 76.0923 65.2731 74.8778 65.2731 73.4545C65.2731 72.0398 65.4521 70.8317 65.81 69.8303C66.1722 68.8246 66.6921 68.0575 67.3697 67.5291C68.0515 66.9964 68.8697 66.7301 69.8242 66.7301C70.7788 66.7301 71.5948 66.9964 72.2724 67.5291C72.9542 68.0575 73.4741 68.8246 73.832 69.8303C74.1942 70.8317 74.3754 72.0398 74.3754 73.4545C74.3754 74.8778 74.1964 76.0923 73.8384 77.098C73.4805 78.0994 72.9627 78.8643 72.2852 79.3928C71.6076 79.9169 70.7873 80.179 69.8242 80.179ZM69.8242 78.7727C70.7788 78.7727 71.5202 78.3125 72.0487 77.392C72.5771 76.4716 72.8413 75.1591 72.8413 73.4545C72.8413 72.321 72.7198 71.3558 72.4769 70.5589C72.2383 69.7621 71.8931 69.1548 71.4414 68.7372C70.994 68.3196 70.4549 68.1108 69.8242 68.1108C68.8782 68.1108 68.1388 68.5774 67.6062 69.5107C67.0735 70.4396 66.8072 71.7543 66.8072 73.4545C66.8072 74.5881 66.9265 75.5511 67.1651 76.3438C67.4038 77.1364 67.7468 77.7393 68.1942 78.1527C68.646 78.5661 69.1893 78.7727 69.8242 78.7727ZM81.0742 80.179C80.1112 80.179 79.2908 79.9169 78.6133 79.3928C77.9357 78.8643 77.418 78.0994 77.06 77.098C76.7021 76.0923 76.5231 74.8778 76.5231 73.4545C76.5231 72.0398 76.7021 70.8317 77.06 69.8303C77.4222 68.8246 77.9421 68.0575 78.6197 67.5291C79.3015 66.9964 80.1197 66.7301 81.0742 66.7301C82.0288 66.7301 82.8448 66.9964 83.5224 67.5291C84.2042 68.0575 84.7241 68.8246 85.082 69.8303C85.4442 70.8317 85.6254 72.0398 85.6254 73.4545C85.6254 74.8778 85.4464 76.0923 85.0884 77.098C84.7305 78.0994 84.2127 78.8643 83.5352 79.3928C82.8576 79.9169 82.0373 80.179 81.0742 80.179ZM81.0742 78.7727C82.0288 78.7727 82.7702 78.3125 83.2987 77.392C83.8271 76.4716 84.0913 75.1591 84.0913 73.4545C84.0913 72.321 83.9698 71.3558 83.7269 70.5589C83.4883 69.7621 83.1431 69.1548 82.6914 68.7372C82.244 68.3196 81.7049 68.1108 81.0742 68.1108C80.1282 68.1108 79.3888 68.5774 78.8562 69.5107C78.3235 70.4396 78.0572 71.7543 78.0572 73.4545C78.0572 74.5881 78.1765 75.5511 78.4151 76.3438C78.6538 77.1364 78.9968 77.7393 79.4442 78.1527C79.896 78.5661 80.4393 78.7727 81.0742 78.7727Z" fill="#808080"/>
<defs>
<clipPath id="clip0_160_16">
<rect width="34.9715" height="35" fill="white" transform="translate(940 228)"/>
</clipPath>
</defs>
</svg>
